<?xml version="1.0" encoding="UTF-8" standalone="no"?>
<!DOCTYPE svg PUBLIC "-//W3C//DTD SVG 1.1//EN" "http://www.w3.org/Graphics/SVG/1.1/DTD/svg11.dtd">
<svg version="1.1" xmlns="http://www.w3.org/2000/svg" xmlns:xlink="http://www.w3.org/1999/xlink" preserveAspectRatio="xMidYMid meet" viewBox="0 0 640 640" width="640" height="640"><defs><path d="M492.82 151.3C490.47 148.95 487.28 147.63 483.96 147.63C482.15 147.63 473.09 147.63 456.79 147.63C476.17 128.28 486.93 117.54 489.08 115.39C493.98 110.49 493.98 102.56 489.08 97.67C479.52 88.12 403.05 11.76 393.49 2.21C388.58 -2.68 380.64 -2.68 375.74 2.21C373.09 4.86 359.86 18.07 336.04 41.86C272.4 105.4 237.04 140.7 229.97 147.76C229.41 147.69 228.84 147.63 228.26 147.63C219.81 147.63 152.26 147.63 143.81 147.63C140.48 147.63 137.29 148.95 134.94 151.31C127.38 158.86 89.59 196.62 21.56 264.59C21.56 264.59 21.56 264.59 21.56 264.59C19.29 266.86 17.88 269.99 17.88 273.45C17.88 308.85 17.88 592.07 17.88 627.47C17.88 634.39 23.5 640 30.43 640C87.14 640 540.85 640 597.56 640C604.49 640 610.11 634.39 610.11 627.47C610.11 614.78 610.11 513.27 610.11 500.58C610.11 493.66 604.49 488.05 597.56 488.05C590.63 488.05 585.01 493.66 585.01 500.58C585.01 508.2 585.01 546.32 585.01 614.94L42.98 614.94L42.98 285.98L585.01 285.98C585.01 354.6 585.01 392.72 585.01 400.34C585.01 407.26 590.63 412.87 597.56 412.87C604.49 412.87 610.11 407.26 610.11 400.34C610.11 387.66 610.11 286.14 610.11 273.45C610.11 269.99 608.7 266.85 606.43 264.58C583.71 241.93 504.18 162.63 492.82 151.3ZM353.79 59.57L384.61 28.79L462.46 106.53L364.57 204.27L261.26 204.27L235.06 178.12L353.79 59.57ZM60.7 260.92L149.01 172.69C183.22 172.69 202.22 172.69 206.02 172.69C203.77 177.35 204.57 183.11 208.44 186.98C209.6 188.13 215.37 193.9 225.77 204.27C202.03 204.27 188.85 204.27 186.21 204.27C179.28 204.27 173.66 209.89 173.66 216.8C173.66 223.72 179.28 229.33 186.21 229.33C211.77 229.33 416.22 229.33 441.78 229.33C448.71 229.33 454.32 223.72 454.32 216.8C454.32 209.89 448.71 204.27 441.78 204.27C439 204.27 425.09 204.27 400.06 204.27L431.69 172.69L478.76 172.69L567.24 260.92L60.7 260.92Z" id="b2rYwXJ6ZQ"></path><path d="M313.99 560.71C374.88 560.71 424.41 511.25 424.41 450.46C424.41 389.67 374.88 340.21 313.99 340.21C253.11 340.21 203.58 389.67 203.58 450.46C203.58 511.25 253.11 560.71 313.99 560.71ZM313.99 535.66C266.95 535.66 228.67 497.44 228.67 450.46C228.67 403.49 266.95 365.27 313.99 365.27C361.04 365.27 399.31 403.48 399.31 450.46C399.31 497.44 361.04 535.66 313.99 535.66Z" id="c1adWxEMeH"></path><path d="M283.95 435.82C279.05 430.93 271.11 430.93 266.21 435.82C261.31 440.71 261.31 448.65 266.21 453.54C268.96 456.29 290.98 478.27 293.74 481.02C296.19 483.47 299.4 484.69 302.61 484.69C305.82 484.69 309.03 483.47 311.48 481.02C316.51 476 356.75 435.82 361.78 430.79C366.68 425.91 366.68 417.97 361.78 413.08C356.88 408.18 348.93 408.18 344.04 413.08C341.28 415.84 327.47 429.63 302.61 454.45C292.66 444.51 286.44 438.3 283.95 435.82Z" id="a23sep8dFO"></path><path d="M588.69 441.61C586.36 443.94 585.01 447.17 585.01 450.46C585.01 453.77 586.36 456.99 588.69 459.33C591.02 461.66 594.26 462.99 597.56 462.99C600.86 462.99 604.09 461.66 606.43 459.33C608.77 456.99 610.11 453.76 610.11 450.46C610.11 447.17 608.77 443.95 606.43 441.61C604.09 439.27 600.86 437.93 597.56 437.93C594.26 437.93 591.02 439.27 588.69 441.61Z" id="e2AYNtwt1A"></path></defs><g><g><g><use xlink:href="#b2rYwXJ6ZQ" opacity="1" fill="#563a27" fill-opacity="1"></use><g><use xlink:href="#b2rYwXJ6ZQ" opacity="1" fill-opacity="0" stroke="#000000" stroke-width="1" stroke-opacity="0"></use></g></g><g><use xlink:href="#c1adWxEMeH" opacity="1" fill="#563a27" fill-opacity="1"></use><g><use xlink:href="#c1adWxEMeH" opacity="1" fill-opacity="0" stroke="#000000" stroke-width="1" stroke-opacity="0"></use></g></g><g><use xlink:href="#a23sep8dFO" opacity="1" fill="#563a27" fill-opacity="1"></use><g><use xlink:href="#a23sep8dFO" opacity="1" fill-opacity="0" stroke="#000000" stroke-width="1" stroke-opacity="0"></use></g></g><g><use xlink:href="#e2AYNtwt1A" opacity="1" fill="#563a27" fill-opacity="1"></use><g><use xlink:href="#e2AYNtwt1A" opacity="1" fill-opacity="0" stroke="#000000" stroke-width="1" stroke-opacity="0"></use></g></g></g></g></svg>