<?xml version="1.0" encoding="UTF-8" standalone="no"?>
<!DOCTYPE svg PUBLIC "-//W3C//DTD SVG 1.1//EN" "http://www.w3.org/Graphics/SVG/1.1/DTD/svg11.dtd">
<svg version="1.1" xmlns="http://www.w3.org/2000/svg" xmlns:xlink="http://www.w3.org/1999/xlink" preserveAspectRatio="xMidYMid meet" viewBox="0 0 640 640" width="640" height="640"><defs><path d="M375 80C375 78.07 375 77 375 76.78C375 56.81 358.75 40.56 338.78 40.56C336.46 40.56 317.92 40.56 315.6 40.56C305.02 16.27 280.8 0 253.71 0C253.46 0 251.54 0 251.29 0C224.2 0 199.98 16.27 189.4 40.56C187.08 40.56 168.54 40.56 166.22 40.56C146.25 40.56 130 56.81 130 76.78C130 77 130 78.07 130 80C89.5 80 67 80 62.5 80C23.36 80 0 98.69 0 130C0 174.75 0 532.75 0 577.5C0 611.96 28.04 640 62.5 640C100.5 640 404.5 640 442.5 640C476.96 640 505 611.96 505 577.5C505 549.21 505 322.88 505 294.58C505 287.68 499.4 282.08 492.5 282.08C485.6 282.08 480 287.68 480 294.58C480 322.88 480 549.21 480 577.5C480 598.18 463.18 615 442.5 615C404.5 615 100.5 615 62.5 615C41.82 615 25 598.18 25 577.5C25 532.75 25 174.75 25 130C25 123.82 25 105 62.5 105C67 105 89.5 105 130 105C130 115.5 130 121.33 130 122.5C130 129.4 135.6 135 142.5 135C164.5 135 340.5 135 362.5 135C369.4 135 375 129.4 375 122.5C375 121.33 375 115.5 375 105C415.5 105 438 105 442.5 105C463.18 105 480 121.82 480 142.5C480 146.71 480 180.38 480 184.58C480 191.49 485.6 197.08 492.5 197.08C499.4 197.08 505 191.49 505 184.58C505 180.38 505 146.71 505 142.5C505 108.04 476.96 80 442.5 80C433.5 80 411 80 375 80ZM350 110L155 110C155 90.07 155 79 155 76.78C155 70.6 160.03 65.56 166.22 65.56C169.42 65.56 195.02 65.56 198.22 65.56C203.87 65.56 208.81 61.78 210.29 56.34C215.29 37.89 232.16 25 251.29 25C251.54 25 253.46 25 253.71 25C272.84 25 289.71 37.89 294.72 56.34C296.19 61.78 301.14 65.56 306.78 65.56C309.98 65.56 335.58 65.56 338.78 65.56C344.97 65.56 350 70.6 350 76.78C350 81.21 350 92.28 350 110Z" id="apzftriPE"></path><path d="M483.66 228.04C481.34 230.38 480 233.59 480 236.88C480 240.18 481.34 243.39 483.66 245.72C485.99 248.05 489.21 249.39 492.5 249.39C495.79 249.39 499.01 248.05 501.34 245.72C503.66 243.4 505 240.18 505 236.88C505 233.59 503.66 230.36 501.34 228.04C499.01 225.71 495.79 224.39 492.5 224.39C489.21 224.39 485.99 225.71 483.66 228.04Z" id="b1IHV9nWXp"></path><path d="M618.66 406.16C616.34 408.49 615 411.71 615 415C615 418.29 616.34 421.51 618.66 423.84C620.99 426.16 624.21 427.5 627.5 427.5C630.79 427.5 634.01 426.16 636.34 423.84C638.66 421.51 640 418.29 640 415C640 411.71 638.66 408.49 636.34 406.16C634.01 403.84 630.79 402.5 627.5 402.5C624.21 402.5 620.99 403.84 618.66 406.16Z" id="c222AllkEg"></path><path d="M598.91 142.39C596.89 137.9 592.43 135 587.5 135C582.57 135 578.11 137.9 576.09 142.39C572.09 151.33 540.09 222.84 536.09 231.78C535.37 233.38 535 235.12 535 236.88C535 274.21 535 572.83 535 610.16C535 626.61 548.39 640 564.84 640C569.37 640 605.62 640 610.16 640C626.61 640 640 626.61 640 610.16C640 596.1 640 483.64 640 469.58C640 462.68 634.4 457.08 627.5 457.08C620.6 457.08 615 462.68 615 469.58C615 475.41 615 504.54 615 556.98L560 556.98L560 249.38L615 249.38C615 318.6 615 357.06 615 364.75C615 371.66 620.6 377.25 627.5 377.25C634.4 377.25 640 371.66 640 364.75C640 351.96 640 249.67 640 236.88C640 235.12 639.63 233.38 638.91 231.78C638.91 231.78 602.91 151.33 598.91 142.39ZM587.5 178.1L608.21 224.38L566.79 224.38L587.5 178.1ZM615 581.98C615 598.89 615 608.28 615 610.16C615 612.83 612.83 615 610.16 615C605.63 615 569.38 615 564.84 615C562.17 615 560 612.83 560 610.16C560 608.28 560 598.89 560 581.98L615 581.98Z" id="dJkz2FUzG"></path><path d="M94.58 232.5C94.58 261.45 118.13 285 147.08 285C176.03 285 199.58 261.45 199.58 232.5C199.58 203.55 176.03 180 147.08 180C118.13 180 94.58 203.55 94.58 232.5ZM119.58 232.5C119.58 217.33 131.92 205 147.08 205C162.25 205 174.58 217.33 174.58 232.5C174.58 247.67 162.25 260 147.08 260C131.92 260 119.58 247.67 119.58 232.5Z" id="g2BJBW54SJ"></path><path d="M94.58 382.5C94.58 411.45 118.13 435 147.08 435C176.03 435 199.58 411.45 199.58 382.5C199.58 353.55 176.03 330 147.08 330C118.13 330 94.58 353.55 94.58 382.5ZM119.58 382.5C119.58 367.33 131.92 355 147.08 355C162.25 355 174.58 367.33 174.58 382.5C174.58 397.67 162.25 410 147.08 410C131.92 410 119.58 397.67 119.58 382.5Z" id="devoDJxQL"></path><path d="M94.58 532.5C94.58 561.45 118.13 585 147.08 585C176.03 585 199.58 561.45 199.58 532.5C199.58 503.55 176.03 480 147.08 480C118.13 480 94.58 503.55 94.58 532.5ZM119.58 532.5C119.58 517.33 131.92 505 147.08 505C162.25 505 174.58 517.33 174.58 532.5C174.58 547.67 162.25 560 147.08 560C131.92 560 119.58 547.67 119.58 532.5Z" id="bCe7Bpw9"></path><path d="M254.58 260C247.68 260 242.08 265.6 242.08 272.5C242.08 279.4 247.68 285 254.58 285C268.92 285 383.59 285 397.92 285C404.82 285 410.42 279.4 410.42 272.5C410.42 265.6 404.82 260 397.92 260C369.25 260 268.92 260 254.58 260Z" id="a9gSFQmU6"></path><path d="M254.58 199.39C247.68 199.39 242.08 204.99 242.08 211.89C242.08 218.79 247.68 224.39 254.58 224.39C268.92 224.39 383.59 224.39 397.92 224.39C404.82 224.39 410.42 218.79 410.42 211.89C410.42 204.99 404.82 199.39 397.92 199.39C369.25 199.39 268.92 199.39 254.58 199.39Z" id="aEE9hYF97"></path><path d="M254.58 410C247.68 410 242.08 415.6 242.08 422.5C242.08 429.4 247.68 435 254.58 435C268.92 435 383.59 435 397.92 435C404.82 435 410.42 429.4 410.42 422.5C410.42 415.6 404.82 410 397.92 410C369.25 410 268.92 410 254.58 410Z" id="c20gEcL6v"></path><path d="M254.58 350C247.68 350 242.08 355.6 242.08 362.5C242.08 369.4 247.68 375 254.58 375C268.92 375 383.59 375 397.92 375C404.82 375 410.42 369.4 410.42 362.5C410.42 355.6 404.82 350 397.92 350C369.25 350 268.92 350 254.58 350Z" id="e3G4ZmVWS"></path><path d="M254.58 560C247.68 560 242.08 565.6 242.08 572.5C242.08 579.4 247.68 585 254.58 585C268.92 585 383.59 585 397.92 585C404.82 585 410.42 579.4 410.42 572.5C410.42 565.6 404.82 560 397.92 560C369.25 560 268.92 560 254.58 560Z" id="b1zzEhVDsA"></path><path d="M254.58 500C247.68 500 242.08 505.6 242.08 512.5C242.08 519.4 247.68 525 254.58 525C268.92 525 383.59 525 397.92 525C404.82 525 410.42 519.4 410.42 512.5C410.42 505.6 404.82 500 397.92 500C369.25 500 268.92 500 254.58 500Z" id="cMtAzqY9k"></path></defs><g><g><g><use xlink:href="#apzftriPE" opacity="1" fill="#31625c" fill-opacity="1"></use><g><use xlink:href="#apzftriPE" opacity="1" fill-opacity="0" stroke="#000000" stroke-width="1" stroke-opacity="0"></use></g></g><g><use xlink:href="#b1IHV9nWXp" opacity="1" fill="#31625c" fill-opacity="1"></use><g><use xlink:href="#b1IHV9nWXp" opacity="1" fill-opacity="0" stroke="#000000" stroke-width="1" stroke-opacity="0"></use></g></g><g><use xlink:href="#c222AllkEg" opacity="1" fill="#31625c" fill-opacity="1"></use><g><use xlink:href="#c222AllkEg" opacity="1" fill-opacity="0" stroke="#000000" stroke-width="1" stroke-opacity="0"></use></g></g><g><use xlink:href="#dJkz2FUzG" opacity="1" fill="#31625c" fill-opacity="1"></use><g><use xlink:href="#dJkz2FUzG" opacity="1" fill-opacity="0" stroke="#000000" stroke-width="1" stroke-opacity="0"></use></g></g><g><use xlink:href="#g2BJBW54SJ" opacity="1" fill="#31625c" fill-opacity="1"></use><g><use xlink:href="#g2BJBW54SJ" opacity="1" fill-opacity="0" stroke="#000000" stroke-width="1" stroke-opacity="0"></use></g></g><g><use xlink:href="#devoDJxQL" opacity="1" fill="#31625c" fill-opacity="1"></use><g><use xlink:href="#devoDJxQL" opacity="1" fill-opacity="0" stroke="#000000" stroke-width="1" stroke-opacity="0"></use></g></g><g><use xlink:href="#bCe7Bpw9" opacity="1" fill="#31625c" fill-opacity="1"></use><g><use xlink:href="#bCe7Bpw9" opacity="1" fill-opacity="0" stroke="#000000" stroke-width="1" stroke-opacity="0"></use></g></g><g><use xlink:href="#a9gSFQmU6" opacity="1" fill="#31625c" fill-opacity="1"></use><g><use xlink:href="#a9gSFQmU6" opacity="1" fill-opacity="0" stroke="#31625c" stroke-width="1" stroke-opacity="1"></use></g></g><g><use xlink:href="#aEE9hYF97" opacity="1" fill="#31625c" fill-opacity="1"></use><g><use xlink:href="#aEE9hYF97" opacity="1" fill-opacity="0" stroke="#000000" stroke-width="1" stroke-opacity="0"></use></g></g><g><use xlink:href="#c20gEcL6v" opacity="1" fill="#31625c" fill-opacity="1"></use><g><use xlink:href="#c20gEcL6v" opacity="1" fill-opacity="0" stroke="#000000" stroke-width="1" stroke-opacity="0"></use></g></g><g><use xlink:href="#e3G4ZmVWS" opacity="1" fill="#31625c" fill-opacity="1"></use><g><use xlink:href="#e3G4ZmVWS" opacity="1" fill-opacity="0" stroke="#000000" stroke-width="1" stroke-opacity="0"></use></g></g><g><use xlink:href="#b1zzEhVDsA" opacity="1" fill="#31625c" fill-opacity="1"></use><g><use xlink:href="#b1zzEhVDsA" opacity="1" fill-opacity="0" stroke="#000000" stroke-width="1" stroke-opacity="0"></use></g></g><g><use xlink:href="#cMtAzqY9k" opacity="1" fill="#31625c" fill-opacity="1"></use><g><use xlink:href="#cMtAzqY9k" opacity="1" fill-opacity="0" stroke="#000000" stroke-width="1" stroke-opacity="0"></use></g></g></g></g></svg>