<?xml version="1.0" encoding="UTF-8" standalone="no"?>
<!DOCTYPE svg PUBLIC "-//W3C//DTD SVG 1.1//EN" "http://www.w3.org/Graphics/SVG/1.1/DTD/svg11.dtd">
<svg version="1.1" xmlns="http://www.w3.org/2000/svg" xmlns:xlink="http://www.w3.org/1999/xlink" preserveAspectRatio="xMidYMid meet" viewBox="-1 5.558 36 35.17999999999999" width="32" height="31.18"><defs><path d="M21.98 12.9C21.98 12.04 21.28 11.34 20.41 11.34C19.55 11.34 18.85 12.04 18.85 12.9C18.85 13.25 18.97 13.58 19.17 13.84C18.91 14.2 16.85 17.07 16.6 17.43C16.45 17.38 16.28 17.35 16.11 17.35C15.7 17.35 15.33 17.51 15.05 17.77C14.88 17.67 13.51 16.9 13.34 16.8C13.36 16.69 13.37 16.58 13.37 16.47C13.37 15.61 12.67 14.91 11.81 14.91C10.95 14.91 10.25 15.61 10.25 16.47C10.25 16.58 10.26 16.69 10.28 16.8C10.11 16.9 8.74 17.67 8.57 17.77C8.29 17.51 7.92 17.35 7.51 17.35C6.65 17.35 5.94 18.05 5.94 18.91C5.94 19.77 6.65 20.48 7.51 20.48C8.37 20.48 9.07 19.77 9.07 18.91C9.07 18.8 9.06 18.69 9.03 18.58C9.21 18.49 10.57 17.71 10.75 17.61C11.03 17.87 11.4 18.03 11.81 18.03C12.22 18.03 12.59 17.87 12.87 17.61C13.04 17.71 14.41 18.49 14.58 18.58C14.56 18.69 14.55 18.8 14.55 18.91C14.55 19.77 15.25 20.48 16.11 20.48C16.97 20.48 17.67 19.77 17.67 18.91C17.67 18.56 17.56 18.24 17.36 17.97C17.62 17.62 19.67 14.75 19.93 14.39C20.08 14.44 20.24 14.46 20.41 14.46C21.28 14.46 21.98 13.76 21.98 12.9ZM21.04 12.9C21.04 13.25 20.76 13.53 20.41 13.53C20.07 13.53 19.79 13.25 19.79 12.9C19.79 12.56 20.07 12.28 20.41 12.28C20.76 12.28 21.04 12.56 21.04 12.9ZM6.88 18.91C6.88 18.57 7.16 18.29 7.51 18.29C7.85 18.29 8.13 18.57 8.13 18.91C8.13 19.26 7.85 19.54 7.51 19.54C7.16 19.54 6.88 19.26 6.88 18.91ZM11.18 16.47C11.18 16.12 11.46 15.84 11.81 15.84C12.15 15.84 12.43 16.12 12.43 16.47C12.43 16.81 12.15 17.09 11.81 17.09C11.46 17.09 11.18 16.81 11.18 16.47ZM15.49 18.91C15.49 18.57 15.77 18.29 16.11 18.29C16.46 18.29 16.74 18.57 16.74 18.91C16.74 19.26 16.46 19.54 16.11 19.54C15.77 19.54 15.49 19.26 15.49 18.91Z" id="a3elqqG5Uk"></path><path d="M22.89 29.71L5.03 29.71C2.81 29.71 1.57 29.71 1.33 29.71C1.11 29.71 0.94 29.53 0.94 29.32C0.94 27.39 0.94 11.92 0.94 9.98C0.94 9.77 1.11 9.59 1.33 9.59C1.55 9.59 3.31 9.59 3.54 9.59C3.79 9.59 4 9.38 4 9.12C4 8.87 3.79 8.66 3.54 8.66C3.31 8.66 1.55 8.66 1.33 8.66C0.59 8.66 0 9.25 0 9.98C0 11.92 0 27.39 0 29.32C0 30.05 0.59 30.65 1.33 30.65C1.54 30.65 2.62 30.65 4.56 30.65C4.56 31.26 4.56 31.61 4.56 31.68C4.56 32.26 5.04 32.74 5.62 32.74C5.94 32.74 7.5 32.74 10.32 32.74C8.99 35.33 8.25 36.77 8.11 37.06C7.99 37.29 8.08 37.57 8.31 37.69C8.38 37.72 8.45 37.74 8.52 37.74C8.69 37.74 8.86 37.64 8.94 37.48C9.1 37.17 9.91 35.59 11.37 32.74L16.55 32.74C18.01 35.59 18.82 37.17 18.98 37.48C19.06 37.64 19.23 37.74 19.4 37.74C19.47 37.74 19.54 37.72 19.61 37.69C19.84 37.57 19.93 37.29 19.81 37.06C19.67 36.77 18.93 35.33 17.61 32.74C20.42 32.74 21.98 32.74 22.3 32.74C22.89 32.74 23.36 32.27 23.36 31.68C23.36 31.61 23.36 31.26 23.36 30.65C25.05 30.65 25.99 30.65 26.17 30.65C26.43 30.65 26.64 30.44 26.64 30.18C26.64 29.92 26.43 29.71 26.17 29.71C25.74 29.71 24.64 29.71 22.89 29.71ZM22.3 31.81C20.63 31.81 7.29 31.81 5.62 31.81C5.55 31.81 5.5 31.75 5.5 31.68C5.5 31.61 5.5 31.26 5.5 30.65L22.43 30.65L22.43 31.68C22.39 31.76 22.34 31.81 22.3 31.81Z" id="e7xhCb5Hl"></path><path d="M11.83 9.59L16.09 9.59C22.39 9.59 25.9 9.59 26.6 9.59C26.81 9.59 26.98 9.77 26.98 9.98C26.98 10.43 26.98 13.99 26.98 14.44C26.98 14.7 27.19 14.91 27.45 14.91C27.71 14.91 27.92 14.7 27.92 14.44C27.92 13.99 27.92 10.43 27.92 9.98C27.92 9.25 27.33 8.66 26.6 8.66C25.93 8.66 22.58 8.66 16.56 8.66C16.56 8.1 16.56 7.8 16.56 7.73C16.56 7.09 16.03 6.56 15.39 6.56C15.1 6.56 12.82 6.56 12.53 6.56C11.89 6.56 11.36 7.09 11.36 7.73C11.36 7.8 11.36 8.1 11.36 8.66C7.79 8.66 5.81 8.66 5.41 8.66C5.15 8.66 4.94 8.87 4.94 9.12C4.94 9.38 5.15 9.59 5.41 9.59C6.27 9.59 8.41 9.59 11.83 9.59ZM12.53 7.5C12.82 7.5 15.1 7.5 15.39 7.5C15.52 7.5 15.62 7.6 15.62 7.73C15.62 7.8 15.62 8.1 15.62 8.66L12.3 8.66L12.3 7.73C12.37 7.57 12.45 7.5 12.53 7.5Z" id="cUhHKQrXJ"></path><path d="M6.09 23.34C6.09 23.75 6.09 27.07 6.09 27.48C6.09 27.74 6.3 27.95 6.56 27.95C6.75 27.95 8.27 27.95 8.46 27.95C8.72 27.95 8.93 27.74 8.93 27.48C8.93 27.07 8.93 23.75 8.93 23.34C8.93 23.08 8.72 22.87 8.46 22.87C8.33 22.87 7.7 22.87 6.56 22.87C6.24 23.01 6.09 23.17 6.09 23.34ZM7.03 27.01L7.03 23.81L7.99 23.81L7.99 27.01L7.03 27.01Z" id="b2hhUsUD2"></path><path d="M10.39 20.94C10.39 21.6 10.39 26.83 10.39 27.48C10.39 27.74 10.6 27.95 10.86 27.95C11.05 27.95 12.57 27.95 12.76 27.95C13.02 27.95 13.23 27.74 13.23 27.48C13.23 26.83 13.23 21.6 13.23 20.94C13.23 20.69 13.02 20.48 12.76 20.48C12.63 20.48 12 20.48 10.86 20.48C10.55 20.62 10.39 20.77 10.39 20.94ZM11.33 27.01L11.33 21.41L12.29 21.41L12.29 27.01L11.33 27.01Z" id="a9XYfnpUkG"></path><path d="M14.69 23.34C14.69 23.75 14.69 27.07 14.69 27.48C14.69 27.74 14.9 27.95 15.16 27.95C15.35 27.95 16.87 27.95 17.06 27.95C17.32 27.95 17.53 27.74 17.53 27.48C17.53 27.07 17.53 23.75 17.53 23.34C17.53 23.08 17.32 22.87 17.06 22.87C16.94 22.87 16.3 22.87 15.16 22.87C14.85 23.01 14.69 23.17 14.69 23.34ZM15.63 27.01L15.63 23.81L16.59 23.81L16.59 27.01L15.63 27.01Z" id="a1fBsjMPqs"></path><path d="M18.99 26.11C18.99 26.24 18.99 27.34 18.99 27.48C18.99 27.74 19.2 27.95 19.46 27.95C19.65 27.95 21.17 27.95 21.36 27.95C21.62 27.95 21.83 27.74 21.83 27.48C21.83 27.22 21.62 27.01 21.36 27.01C21.27 27.01 20.79 27.01 19.93 27.01C19.93 26.47 19.93 26.17 19.93 26.11C19.93 25.85 19.72 25.64 19.46 25.64C19.2 25.64 18.99 25.85 18.99 26.11Z" id="k16UY3H5Cy"></path><path d="M29.07 25.49C29.75 24.77 30.25 23.88 30.51 22.89C30.94 21.31 30.72 19.66 29.9 18.24C28.21 15.31 24.46 14.31 21.53 16C18.61 17.69 17.6 21.44 19.29 24.37C20.11 25.78 21.43 26.8 23.01 27.22C23.54 27.36 24.07 27.43 24.61 27.43C25.07 27.43 25.53 27.38 25.99 27.27C26.25 27.74 28.41 31.47 28.67 31.93C29 32.5 29.6 32.82 30.22 32.82C30.52 32.82 30.83 32.74 31.11 32.58C31.66 32.27 32 31.67 32 31.04C32 30.73 31.92 30.42 31.76 30.15C31.22 29.22 29.34 25.96 29.07 25.49ZM20.1 23.9C18.67 21.42 19.52 18.24 22 16.81C22.82 16.34 23.71 16.12 24.59 16.12C26.38 16.12 28.13 17.05 29.09 18.71C29.78 19.91 29.97 21.31 29.61 22.65C29.25 23.99 28.39 25.1 27.19 25.8C25.99 26.49 24.59 26.67 23.25 26.32C21.91 25.96 20.8 25.1 20.1 23.9ZM29.49 31.46C29.23 31.01 27.16 27.43 26.9 26.98C27.16 26.88 27.41 26.75 27.66 26.61C27.91 26.47 28.14 26.31 28.36 26.14C28.62 26.58 30.69 30.17 30.95 30.62C31.02 30.75 31.06 30.89 31.06 31.04C31.06 31.34 30.9 31.62 30.64 31.77C30.24 32 29.72 31.87 29.49 31.46Z" id="cnR6SAbDF"></path><path d="M28.62 19.41C28.51 19.18 28.23 19.08 28 19.19C27.77 19.3 27.67 19.58 27.78 19.81C28.15 20.6 28.21 21.5 27.95 22.35C27.69 23.19 27.12 23.9 26.35 24.35C25.54 24.81 24.59 24.94 23.69 24.7C22.78 24.45 22.02 23.87 21.55 23.06C20.59 21.38 21.16 19.23 22.84 18.26C24.07 17.55 25.59 17.65 26.72 18.5C26.92 18.66 27.22 18.62 27.37 18.41C27.53 18.2 27.49 17.91 27.28 17.75C25.85 16.67 23.92 16.55 22.37 17.45C21.34 18.04 20.61 19 20.3 20.15C19.99 21.3 20.15 22.5 20.74 23.53C21.34 24.56 22.3 25.29 23.44 25.6C23.83 25.7 24.22 25.76 24.6 25.76C25.37 25.76 26.14 25.55 26.82 25.16C27.79 24.6 28.51 23.7 28.85 22.62C29.18 21.56 29.1 20.42 28.62 19.41Z" id="b1kRVOiWWu"></path></defs><g><g><use xlink:href="#a3elqqG5Uk" opacity="1" fill="#000000" fill-opacity="1"></use><g><use xlink:href="#a3elqqG5Uk" opacity="1" fill-opacity="0" stroke="#000000" stroke-width="1" stroke-opacity="0"></use></g></g><g><use xlink:href="#e7xhCb5Hl" opacity="1" fill="#000000" fill-opacity="1"></use><g><use xlink:href="#e7xhCb5Hl" opacity="1" fill-opacity="0" stroke="#000000" stroke-width="1" stroke-opacity="0"></use></g></g><g><use xlink:href="#cUhHKQrXJ" opacity="1" fill="#000000" fill-opacity="1"></use><g><use xlink:href="#cUhHKQrXJ" opacity="1" fill-opacity="0" stroke="#000000" stroke-width="1" stroke-opacity="0"></use></g></g><g><use xlink:href="#b2hhUsUD2" opacity="1" fill="#000000" fill-opacity="1"></use><g><use xlink:href="#b2hhUsUD2" opacity="1" fill-opacity="0" stroke="#000000" stroke-width="1" stroke-opacity="0"></use></g></g><g><use xlink:href="#a9XYfnpUkG" opacity="1" fill="#000000" fill-opacity="1"></use><g><use xlink:href="#a9XYfnpUkG" opacity="1" fill-opacity="0" stroke="#000000" stroke-width="1" stroke-opacity="0"></use></g></g><g><use xlink:href="#a1fBsjMPqs" opacity="1" fill="#000000" fill-opacity="1"></use><g><use xlink:href="#a1fBsjMPqs" opacity="1" fill-opacity="0" stroke="#000000" stroke-width="1" stroke-opacity="0"></use></g></g><g><use xlink:href="#k16UY3H5Cy" opacity="1" fill="#000000" fill-opacity="1"></use><g><use xlink:href="#k16UY3H5Cy" opacity="1" fill-opacity="0" stroke="#000000" stroke-width="1" stroke-opacity="0"></use></g></g><g><use xlink:href="#cnR6SAbDF" opacity="1" fill="#000000" fill-opacity="1"></use><g><use xlink:href="#cnR6SAbDF" opacity="1" fill-opacity="0" stroke="#000000" stroke-width="1" stroke-opacity="0"></use></g></g><g><use xlink:href="#b1kRVOiWWu" opacity="1" fill="#000000" fill-opacity="1"></use><g><use xlink:href="#b1kRVOiWWu" opacity="1" fill-opacity="0" stroke="#000000" stroke-width="1" stroke-opacity="0"></use></g></g></g></svg>