<?xml version="1.0" encoding="UTF-8" standalone="no"?>
<!DOCTYPE svg PUBLIC "-//W3C//DTD SVG 1.1//EN" "http://www.w3.org/Graphics/SVG/1.1/DTD/svg11.dtd">
<svg version="1.1" xmlns="http://www.w3.org/2000/svg" xmlns:xlink="http://www.w3.org/1999/xlink" preserveAspectRatio="xMidYMid meet" viewBox="0 0 640 640" width="32" height="32"><defs><path d="M488.89 158.21C486.57 155.89 483.43 154.59 480.16 154.59C478.37 154.59 469.46 154.59 453.41 154.59C472.49 135.52 483.08 124.92 485.2 122.8C490.03 117.98 490.03 110.16 485.2 105.34C475.79 95.93 400.51 20.64 391.1 11.23C386.27 6.41 378.45 6.41 373.63 11.23C371.02 13.84 358 26.87 334.55 50.31C271.9 112.96 237.1 147.76 230.14 154.73C229.58 154.65 229.02 154.59 228.45 154.59C220.13 154.59 153.63 154.59 145.32 154.59C142.04 154.59 138.9 155.9 136.58 158.22C129.14 165.66 91.94 202.89 24.97 269.9C24.97 269.9 24.97 269.9 24.97 269.9C22.74 272.13 21.36 275.22 21.36 278.63C21.36 313.54 21.36 592.75 21.36 627.65C21.36 634.47 26.88 640 33.71 640C89.54 640 536.16 640 591.99 640C598.81 640 604.34 634.47 604.34 627.65C604.34 615.14 604.34 515.06 604.34 502.55C604.34 495.73 598.81 490.2 591.99 490.2C585.17 490.2 579.64 495.73 579.64 502.55C579.64 510.07 579.64 547.65 579.64 615.3L46.06 615.3L46.06 290.98L579.64 290.98C579.64 358.63 579.64 396.22 579.64 403.73C579.64 410.56 585.17 416.08 591.99 416.08C598.81 416.08 604.34 410.56 604.34 403.73C604.34 391.22 604.34 291.14 604.34 278.63C604.34 275.22 602.95 272.13 600.72 269.89C578.35 247.55 500.07 169.38 488.89 158.21ZM352.02 67.78L382.37 37.43L459 114.07L362.64 210.44L260.93 210.44L235.14 184.65L352.02 67.78ZM63.51 266.28L150.44 179.3C184.11 179.3 202.82 179.3 206.56 179.3C204.34 183.9 205.13 189.57 208.94 193.39C210.08 194.52 215.76 200.21 226 210.44C202.63 210.44 189.65 210.44 187.06 210.44C180.23 210.44 174.7 215.97 174.7 222.79C174.7 229.61 180.23 235.14 187.06 235.14C212.21 235.14 413.48 235.14 438.64 235.14C445.46 235.14 450.99 229.61 450.99 222.79C450.99 215.97 445.46 210.44 438.64 210.44C435.9 210.44 422.21 210.44 397.57 210.44L428.71 179.3L475.04 179.3L562.14 266.28L63.51 266.28Z" id="f12AykaShJ"></path><path d="M312.85 561.83C372.78 561.83 421.54 513.07 421.54 453.14C421.54 393.21 372.78 344.45 312.85 344.45C252.91 344.45 204.15 393.21 204.15 453.14C204.15 513.07 252.91 561.83 312.85 561.83ZM312.85 537.13C266.54 537.13 228.86 499.45 228.86 453.14C228.86 406.83 266.54 369.15 312.85 369.15C359.16 369.15 396.83 406.83 396.83 453.14C396.83 499.45 359.16 537.13 312.85 537.13Z" id="anZ6lhhrx"></path><path d="M283.28 438.71C278.45 433.88 270.63 433.88 265.8 438.71C260.98 443.53 260.98 451.35 265.8 456.17C268.51 458.88 290.2 480.56 292.91 483.27C295.32 485.68 298.48 486.89 301.64 486.89C304.8 486.89 307.96 485.68 310.37 483.27C315.32 478.32 354.94 438.7 359.89 433.75C364.71 428.93 364.71 421.11 359.89 416.29C355.06 411.46 347.24 411.46 342.42 416.29C339.7 419.01 326.11 432.6 301.64 457.07C291.84 447.28 285.72 441.16 283.28 438.71Z" id="a1ylEe1N3g"></path><path d="M583.26 444.41C580.96 446.7 579.64 449.89 579.64 453.13C579.64 456.4 580.96 459.57 583.26 461.88C585.55 464.18 588.74 465.49 591.99 465.49C595.24 465.49 598.42 464.18 600.72 461.88C603.02 459.57 604.34 456.39 604.34 453.13C604.34 449.89 603.02 446.71 600.72 444.41C598.42 442.1 595.24 440.78 591.99 440.78C588.74 440.78 585.55 442.1 583.26 444.41Z" id="bb9XXIrmd"></path></defs><g><g><g><use xlink:href="#f12AykaShJ" opacity="1" fill="#000000" fill-opacity="1"></use><g><use xlink:href="#f12AykaShJ" opacity="1" fill-opacity="0" stroke="#000000" stroke-width="1" stroke-opacity="0"></use></g></g><g><use xlink:href="#anZ6lhhrx" opacity="1" fill="#000000" fill-opacity="1"></use><g><use xlink:href="#anZ6lhhrx" opacity="1" fill-opacity="0" stroke="#000000" stroke-width="1" stroke-opacity="0"></use></g></g><g><use xlink:href="#a1ylEe1N3g" opacity="1" fill="#000000" fill-opacity="1"></use><g><use xlink:href="#a1ylEe1N3g" opacity="1" fill-opacity="0" stroke="#000000" stroke-width="1" stroke-opacity="0"></use></g></g><g><use xlink:href="#bb9XXIrmd" opacity="1" fill="#000000" fill-opacity="1"></use><g><use xlink:href="#bb9XXIrmd" opacity="1" fill-opacity="0" stroke="#000000" stroke-width="1" stroke-opacity="0"></use></g></g></g></g></svg>