<svg id="Capa_1" enable-background="new 0 0 512 512" height="512" viewBox="0 0 512 512" width="512" xmlns="http://www.w3.org/2000/svg"><g><g><g><path d="m296 260h-80c-8.284 0-15-6.716-15-15v-3.707c0-14.216-6.894-28.156-18.913-38.244-26.111-21.918-41.087-54.01-41.087-88.049 0-63.411 51.589-115 115-115s115 51.589 115 115c0 34.039-14.976 66.131-41.087 88.049-12.019 10.089-18.913 24.028-18.913 38.244v3.707c0 8.284-6.716 15-15 15z" fill="#ffe350"/></g><g><path d="m456 120h-40c-8.284 0-15-6.716-15-15s6.716-15 15-15h40c8.284 0 15 6.716 15 15s-6.716 15-15 15z" fill="#445064"/></g><g><path d="m396.001 56.844c-6.128 0-11.879-3.782-14.097-9.874-2.833-7.785 1.181-16.393 8.966-19.226l37.588-13.681c7.782-2.834 16.392 1.18 19.226 8.965 2.833 7.785-1.181 16.393-8.966 19.226l-37.588 13.682c-1.692.616-3.426.908-5.129.908z" fill="#445064"/></g><g><path d="m433.587 196.844c-1.703 0-3.436-.292-5.129-.909l-37.588-13.681c-7.785-2.833-11.799-11.441-8.966-19.226 2.834-7.785 11.44-11.801 19.226-8.965l37.588 13.681c7.785 2.833 11.799 11.441 8.966 19.226-2.218 6.092-7.97 9.874-14.097 9.874z" fill="#445064"/></g><g><path d="m96 120h-40c-8.284 0-15-6.716-15-15s6.716-15 15-15h40c8.284 0 15 6.716 15 15s-6.716 15-15 15z" fill="#5d6787"/></g><g><path d="m115.999 56.844c-1.703 0-3.436-.292-5.129-.909l-37.588-13.68c-7.785-2.833-11.799-11.441-8.966-19.226 2.834-7.785 11.439-11.8 19.226-8.965l37.588 13.681c7.785 2.833 11.799 11.441 8.966 19.226-2.218 6.091-7.97 9.873-14.097 9.873z" fill="#5d6787"/></g><g><path d="m78.413 196.844c-6.128 0-11.879-3.782-14.097-9.874-2.833-7.785 1.181-16.393 8.966-19.226l37.588-13.681c7.781-2.833 16.391 1.18 19.226 8.965 2.833 7.785-1.181 16.393-8.966 19.226l-37.588 13.681c-1.692.617-3.426.909-5.129.909z" fill="#5d6787"/></g><g><path d="m296 260c8.284 0 15-6.716 15-15v-3.707c0-14.216 6.894-28.156 18.913-38.245 26.111-21.917 41.087-54.009 41.087-88.048 0-63.411-51.589-115-115-115v260z" fill="#ffc81e"/></g><path d="m201 245v30c0 24.813 20.187 45 45 45h20c24.813 0 45-20.187 45-45v-30z" fill="#dcf0ff"/><path d="m256 320h10c24.813 0 45-20.187 45-45v-30h-55z" fill="#bedcf0"/></g><g><g><path d="m497 512h-200c-8.284 0-15-6.716-15-15 0-63.411 51.589-115 115-115s115 51.589 115 115c0 8.284-6.716 15-15 15z" fill="#aadc1e"/></g><g><g><path d="m215 512h-200c-8.284 0-15-6.716-15-15 0-63.411 51.589-115 115-115s115 51.589 115 115c0 8.284-6.716 15-15 15z" fill="#49acff"/></g><path d="m115 382v130h100c8.284 0 15-6.716 15-15 0-63.411-51.589-115-115-115z" fill="#1790e7"/><path d="m397 382v130h100c8.284 0 15-6.716 15-15 0-63.411-51.589-115-115-115z" fill="#8cc314"/><g><path d="m115 412c-38.599 0-70-31.402-70-70s31.401-70 70-70 70 31.402 70 70-31.401 70-70 70z" fill="#ffd5b6"/></g><path d="m115 272v140c38.599 0 70-31.402 70-70s-31.401-70-70-70z" fill="#ffc896"/></g><g><path d="m397 412c-38.599 0-70-31.402-70-70s31.401-70 70-70 70 31.402 70 70-31.401 70-70 70z" fill="#ffd5b6"/></g><g><path d="m397 272v140c38.599 0 70-31.402 70-70s-31.401-70-70-70z" fill="#ffc896"/></g></g></g></svg>