<?xml version="1.0" encoding="UTF-8" standalone="no"?>
<!DOCTYPE svg PUBLIC "-//W3C//DTD SVG 1.1//EN" "http://www.w3.org/Graphics/SVG/1.1/DTD/svg11.dtd">
<svg version="1.1" xmlns="http://www.w3.org/2000/svg" xmlns:xlink="http://www.w3.org/1999/xlink" preserveAspectRatio="xMidYMid meet" viewBox="0 0 640 640" width="32" height="32"><defs><path d="M118.52 296.3C118.52 380.59 170.56 455.25 248.89 484.74C248.89 495.53 248.89 581.81 248.89 592.59C248.89 599.15 254.19 604.44 260.74 604.44C261.53 604.44 265.48 604.44 272.59 604.44C272.59 618.67 272.59 626.57 272.59 628.15C272.59 634.7 277.89 640 284.44 640C291.56 640 348.44 640 355.56 640C362.11 640 367.41 634.7 367.41 628.15C367.41 626.57 367.41 618.67 367.41 604.44C374.52 604.44 378.47 604.44 379.26 604.44C385.81 604.44 391.11 599.15 391.11 592.59C391.11 581.81 391.11 495.53 391.11 484.74C469.44 455.25 521.48 380.59 521.48 296.3C521.48 185.2 431.1 94.81 320 94.81C208.9 94.81 118.52 185.2 118.52 296.3ZM343.7 592.59C343.7 594.17 343.7 602.07 343.7 616.3L296.3 616.3C296.3 602.07 296.3 594.17 296.3 592.59C296.3 586.04 291 580.74 284.44 580.74C283.65 580.74 279.7 580.74 272.59 580.74L272.59 521.48L367.41 521.48L367.41 580.74L355.56 580.74C347.65 584.27 343.7 588.22 343.7 592.59ZM367.41 476.35C367.41 477.78 367.41 484.92 367.41 497.78L272.59 497.78C272.59 484.92 272.59 477.78 272.59 476.35C272.59 471.23 269.31 466.69 264.44 465.09C191.35 441.05 142.22 373.21 142.22 296.3C142.22 198.27 221.97 118.52 320 118.52C418.03 118.52 497.78 198.27 497.78 296.3C497.78 373.21 448.65 441.05 375.56 465.09C370.69 466.69 367.41 471.24 367.41 476.35Z" id="b36fcUOMRy"></path><path d="M331.85 59.26C331.85 54.52 331.85 16.59 331.85 11.85C331.85 5.3 326.55 0 320 0C313.45 0 308.15 5.3 308.15 11.85C308.15 16.59 308.15 54.52 308.15 59.26C308.15 65.81 313.45 71.11 320 71.11C326.55 71.11 331.85 65.81 331.85 59.26Z" id="bafS4TdBS"></path><path d="M557.04 284.44C550.48 284.44 545.19 289.74 545.19 296.3C545.19 302.85 550.48 308.15 557.04 308.15C561.78 308.15 599.7 308.15 604.44 308.15C611 308.15 616.3 302.85 616.3 296.3C616.3 289.74 611 284.44 604.44 284.44C594.96 284.44 561.78 284.44 557.04 284.44Z" id="d1HzyfvDt"></path><path d="M35.56 284.44C29 284.44 23.7 289.74 23.7 296.3C23.7 302.85 29 308.15 35.56 308.15C40.3 308.15 78.22 308.15 82.96 308.15C89.52 308.15 94.81 302.85 94.81 296.3C94.81 289.74 89.52 284.44 82.96 284.44C73.48 284.44 40.3 284.44 35.56 284.44Z" id="a2nDWC7NXG"></path><path d="M479.24 120.3C474.61 124.93 474.61 132.42 479.24 137.05C481.55 139.37 484.59 140.53 487.62 140.53C490.65 140.53 493.69 139.37 496 137.05C499.35 133.7 526.17 106.89 529.52 103.54C534.15 98.9 534.15 91.41 529.52 86.78C524.88 82.15 517.38 82.16 512.76 86.78C506.06 93.48 482.59 116.94 479.24 120.3Z" id="b11bvttpXn"></path><path d="M110.48 489.05C105.85 493.69 105.85 501.18 110.48 505.81C112.79 508.12 115.83 509.29 118.86 509.29C121.9 509.29 124.93 508.12 127.24 505.81C130.59 502.46 157.41 475.65 160.76 472.3C165.39 467.66 165.39 460.17 160.76 455.54C156.12 450.9 148.63 450.9 144 455.54C137.3 462.24 113.83 485.7 110.48 489.05Z" id="i1D0d0CUXb"></path><path d="M479.24 455.54C474.61 460.17 474.61 467.66 479.24 472.3C482.59 475.65 509.41 502.46 512.76 505.81C515.07 508.12 518.1 509.29 521.14 509.29C524.17 509.29 527.21 508.12 529.52 505.81C534.15 501.18 534.15 493.69 529.52 489.05C527.28 486.82 516.11 475.65 496 455.54C487.92 452.45 482.33 452.45 479.24 455.54Z" id="a2fQFglSe"></path><path d="M152.38 140.53C155.41 140.53 158.45 139.37 160.76 137.05C165.39 132.42 165.39 124.93 160.76 120.3C157.41 116.94 130.59 90.13 127.24 86.78C122.61 82.15 115.12 82.15 110.48 86.78C105.85 91.41 105.85 98.9 110.48 103.54C112.72 105.77 123.89 116.94 144 137.05C147.56 139.37 150.36 140.53 152.38 140.53Z" id="b1zDSZwaT4"></path><path d="M177.78 296.3C177.78 302.85 183.08 308.15 189.63 308.15C196.18 308.15 201.48 302.85 201.48 296.3C201.48 230.95 254.65 177.78 320 177.78C326.55 177.78 331.85 172.48 331.85 165.93C331.85 159.37 326.55 154.07 320 154.07C241.58 154.07 177.78 217.87 177.78 296.3Z" id="eTa09k0Uj"></path></defs><g><g><g><use xlink:href="#b36fcUOMRy" opacity="1" fill="#000000" fill-opacity="1"></use><g><use xlink:href="#b36fcUOMRy" opacity="1" fill-opacity="0" stroke="#000000" stroke-width="1" stroke-opacity="0"></use></g></g><g><use xlink:href="#bafS4TdBS" opacity="1" fill="#000000" fill-opacity="1"></use><g><use xlink:href="#bafS4TdBS" opacity="1" fill-opacity="0" stroke="#000000" stroke-width="1" stroke-opacity="0"></use></g></g><g><use xlink:href="#d1HzyfvDt" opacity="1" fill="#000000" fill-opacity="1"></use><g><use xlink:href="#d1HzyfvDt" opacity="1" fill-opacity="0" stroke="#000000" stroke-width="1" stroke-opacity="0"></use></g></g><g><use xlink:href="#a2nDWC7NXG" opacity="1" fill="#000000" fill-opacity="1"></use><g><use xlink:href="#a2nDWC7NXG" opacity="1" fill-opacity="0" stroke="#000000" stroke-width="1" stroke-opacity="0"></use></g></g><g><use xlink:href="#b11bvttpXn" opacity="1" fill="#000000" fill-opacity="1"></use><g><use xlink:href="#b11bvttpXn" opacity="1" fill-opacity="0" stroke="#000000" stroke-width="1" stroke-opacity="0"></use></g></g><g><use xlink:href="#i1D0d0CUXb" opacity="1" fill="#000000" fill-opacity="1"></use><g><use xlink:href="#i1D0d0CUXb" opacity="1" fill-opacity="0" stroke="#000000" stroke-width="1" stroke-opacity="0"></use></g></g><g><use xlink:href="#a2fQFglSe" opacity="1" fill="#000000" fill-opacity="1"></use><g><use xlink:href="#a2fQFglSe" opacity="1" fill-opacity="0" stroke="#000000" stroke-width="1" stroke-opacity="0"></use></g></g><g><use xlink:href="#b1zDSZwaT4" opacity="1" fill="#000000" fill-opacity="1"></use><g><use xlink:href="#b1zDSZwaT4" opacity="1" fill-opacity="0" stroke="#000000" stroke-width="1" stroke-opacity="0"></use></g></g><g><use xlink:href="#eTa09k0Uj" opacity="1" fill="#000000" fill-opacity="1"></use><g><use xlink:href="#eTa09k0Uj" opacity="1" fill-opacity="0" stroke="#000000" stroke-width="1" stroke-opacity="0"></use></g></g></g></g></svg>