<?xml version="1.0" encoding="UTF-8" standalone="no"?>
<!DOCTYPE svg PUBLIC "-//W3C//DTD SVG 1.1//EN" "http://www.w3.org/Graphics/SVG/1.1/DTD/svg11.dtd">
<svg version="1.1" xmlns="http://www.w3.org/2000/svg" xmlns:xlink="http://www.w3.org/1999/xlink" preserveAspectRatio="xMidYMid meet" viewBox="-0.997500000000002 -1 36 36" width="32" height="32"><defs><path d="M11.34 16.47C11.34 11.39 11.34 8.56 11.34 8C11.34 7.63 11.04 7.33 10.67 7.33C10.34 7.33 7.67 7.33 7.34 7.33C6.97 7.33 6.67 7.63 6.67 8C6.67 8.57 6.67 11.39 6.67 16.49C2.94 22.82 0.87 26.34 0.46 27.05C0.16 27.55 0 28.13 0 28.71C0 30.53 1.47 32 3.29 32C4.5 32 14.22 32 15.43 32C16.05 32 16.66 31.82 17.19 31.48C18.69 30.51 19.12 28.5 18.15 27C17.24 25.6 14.97 22.08 11.34 16.47ZM3.29 30.67C2.94 30.67 2.6 30.57 2.3 30.4C1.37 29.85 1.06 28.65 1.6 27.72C2.23 26.65 7.28 18.08 7.91 17C7.97 16.9 8 16.79 8 16.67C8 16.13 8 13.47 8 8.67L10 8.67C10 13.47 10 16.13 10 16.67C10 16.8 10.04 16.92 10.11 17.03C10.8 18.1 16.34 26.65 17.03 27.72C17.23 28.03 17.34 28.39 17.34 28.76C17.34 29.81 16.48 30.67 15.43 30.67C13 30.67 4.5 30.67 3.29 30.67Z" id="bRV9xkO7H"></path><path d="M8.46 18.71C5.06 24.48 3.17 27.69 2.8 28.33C2.74 28.43 2.7 28.55 2.7 28.67C2.7 29.04 3 29.33 3.37 29.33C3.68 29.33 5.22 29.33 8 29.33L8 28L4.54 28L9.61 19.38L8.46 18.71Z" id="g2xO0ZVCY"></path><path d="M20 15.33C18.53 15.33 17.34 16.53 17.34 18C17.34 19.07 17.34 27.6 17.34 28.67C17.34 30.51 18.83 32 20.67 32C21.27 32 26.07 32 26.67 32C28.51 32 30 30.51 30 28.67C30 28.06 30 25.04 30 19.61C30.92 18.69 31.43 18.18 31.53 18.08C31.83 17.78 32 17.37 32 16.94C32 16.06 31.28 15.33 30.39 15.33C28.32 15.33 21.04 15.33 20 15.33ZM28.86 18.86C28.74 18.99 28.67 19.16 28.67 19.33C28.67 20.27 28.67 27.73 28.67 28.67C28.67 29.77 27.77 30.67 26.67 30.67C26.07 30.67 21.27 30.67 20.67 30.67C19.56 30.67 18.67 29.77 18.67 28.67C18.67 27.6 18.67 19.07 18.67 18C18.67 17.26 19.27 16.67 20 16.67C21.04 16.67 29.35 16.67 30.39 16.67C30.47 16.67 30.54 16.7 30.59 16.75C30.7 16.86 30.7 17.03 30.59 17.14C30.24 17.48 29.04 18.69 28.86 18.86Z" id="e2TYjWgtln"></path><path d="M26 28L24 28L24 29.33C25.6 29.33 26.49 29.33 26.67 29.33C27.04 29.33 27.34 29.03 27.34 28.67C27.34 28.04 27.34 24.93 27.34 19.33L26 19.33L26 28Z" id="apgIsZoR"></path><path d="M18.67 0.67C18.67 0.3 18.37 0 18 0C17.54 0 13.8 0 13.34 0C12.97 0 12.67 0.3 12.67 0.67C12.67 1.58 12.67 8.93 12.67 9.85C11.86 10.1 11.07 10.44 10.34 10.86C10.4 10.98 10.94 11.9 11 12.02C11.79 11.57 12.63 11.22 13.5 11C13.8 10.92 14 10.65 14 10.35C14 9.75 14 6.74 14 1.33L17.34 1.33C17.34 6.65 17.34 9.6 17.34 10.19C17.34 10.51 17.56 10.79 17.88 10.85C20.22 11.3 22.32 12.56 23.81 14.42C23.91 14.33 24.74 13.67 24.85 13.58C23.28 11.63 21.11 10.25 18.67 9.66C18.67 7.86 18.67 1.57 18.67 0.67Z" id="b13RcsUSaR"></path><path d="M26 11.67C26 12.96 27.05 14 28.34 14C29.62 14 30.67 12.96 30.67 11.67C30.67 10.38 29.62 9.33 28.34 9.33C27.05 9.33 26 10.38 26 11.67ZM27.34 11.67C27.34 11.11 27.78 10.67 28.34 10.67C28.89 10.67 29.34 11.11 29.34 11.67C29.34 12.22 28.89 12.67 28.34 12.67C27.78 12.67 27.34 12.22 27.34 11.67Z" id="bagbNHoZr"></path><path d="M24 6.67C24 7.77 24.9 8.67 26 8.67C27.11 8.67 28 7.77 28 6.67C28 5.56 27.11 4.67 26 4.67C24.9 4.67 24 5.56 24 6.67ZM25.34 6.67C25.34 6.3 25.63 6 26 6C26.37 6 26.67 6.3 26.67 6.67C26.67 7.03 26.37 7.33 26 7.33C25.63 7.33 25.34 7.03 25.34 6.67Z" id="l1COzdrPjY"></path><path d="M0 7.67C0 8.96 1.05 10 2.34 10C3.62 10 4.67 8.96 4.67 7.67C4.67 6.38 3.62 5.33 2.34 5.33C1.05 5.33 0 6.38 0 7.67ZM1.34 7.67C1.34 7.11 1.78 6.67 2.34 6.67C2.89 6.67 3.34 7.11 3.34 7.67C3.34 8.22 2.89 8.67 2.34 8.67C1.78 8.67 1.34 8.22 1.34 7.67Z" id="d9WaQjwpA"></path><path d="M3.34 2.67C3.34 3.77 4.23 4.67 5.34 4.67C6.44 4.67 7.34 3.77 7.34 2.67C7.34 1.56 6.44 0.67 5.34 0.67C4.23 0.67 3.34 1.56 3.34 2.67ZM4.67 2.67C4.67 2.3 4.97 2 5.34 2C5.7 2 6 2.3 6 2.67C6 3.03 5.7 3.33 5.34 3.33C4.97 3.33 4.67 3.03 4.67 2.67Z" id="drgXKekka"></path><path d="M22 19.33C22 19.33 22 19.33 22 19.33C22 20.13 22 20.58 22 20.67C22 20.67 22 20.67 22 20.67C20.8 20.67 20.14 20.67 20 20.67C20 20.67 20 20.67 20 20.67C20 19.87 20 19.42 20 19.33C20 19.33 20 19.33 20 19.33C21.2 19.33 21.87 19.33 22 19.33Z" id="anAS4ymED"></path><path d="M21.34 22C21.34 22 21.34 22 21.34 22C21.34 22.8 21.34 23.24 21.34 23.33C21.34 23.33 21.34 23.33 21.34 23.33C20.54 23.33 20.09 23.33 20 23.33C20 23.33 20 23.33 20 23.33C20 22.53 20 22.09 20 22C20 22 20 22 20 22C20.8 22 21.25 22 21.34 22Z" id="a6gpYvoAa"></path><path d="M22 24.67C22 24.67 22 24.67 22 24.67C22 25.47 22 25.91 22 26C22 26 22 26 22 26C20.8 26 20.14 26 20 26C20 26 20 26 20 26C20 25.2 20 24.76 20 24.67C20 24.67 20 24.67 20 24.67C21.2 24.67 21.87 24.67 22 24.67Z" id="a3V5tPa8bq"></path><path d="M21.34 27.33C21.34 27.33 21.34 27.33 21.34 27.33C21.34 28.13 21.34 28.58 21.34 28.67C21.34 28.67 21.34 28.67 21.34 28.67C20.54 28.67 20.09 28.67 20 28.67C20 28.67 20 28.67 20 28.67C20 27.87 20 27.42 20 27.33C20 27.33 20 27.33 20 27.33C20.8 27.33 21.25 27.33 21.34 27.33Z" id="dmplXqWWy"></path><path d="M2.67 12C2.67 12 2.67 12 2.67 12C2.67 12.8 2.67 13.24 2.67 13.33C2.67 13.33 2.67 13.33 2.67 13.33C1.87 13.33 1.42 13.33 1.34 13.33C1.34 13.33 1.34 13.33 1.34 13.33C1.34 12.53 1.34 12.09 1.34 12C1.34 12 1.34 12 1.34 12C2.14 12 2.58 12 2.67 12Z" id="e2PkG4IRuy"></path><path d="M4.67 15.33C4.67 15.33 4.67 15.33 4.67 15.33C4.67 16.13 4.67 16.58 4.67 16.67C4.67 16.67 4.67 16.67 4.67 16.67C3.87 16.67 3.42 16.67 3.34 16.67C3.34 16.67 3.34 16.67 3.34 16.67C3.34 15.87 3.34 15.42 3.34 15.33C3.34 15.33 3.34 15.33 3.34 15.33C4.14 15.33 4.58 15.33 4.67 15.33Z" id="a1Lj6BEyZV"></path><path d="M16 18C16 18 16 18 16 18C16 18.8 16 19.24 16 19.33C16 19.33 16 19.33 16 19.33C15.2 19.33 14.76 19.33 14.67 19.33C14.67 19.33 14.67 19.33 14.67 19.33C14.67 18.53 14.67 18.09 14.67 18C14.67 18 14.67 18 14.67 18C15.47 18 15.91 18 16 18Z" id="a11eALHLQF"></path><path d="M14.67 15.33C14.67 15.33 14.67 15.33 14.67 15.33C14.67 16.13 14.67 16.58 14.67 16.67C14.67 16.67 14.67 16.67 14.67 16.67C13.87 16.67 13.42 16.67 13.34 16.67C13.34 16.67 13.34 16.67 13.34 16.67C13.34 15.87 13.34 15.42 13.34 15.33C13.34 15.33 13.34 15.33 13.34 15.33C14.14 15.33 14.58 15.33 14.67 15.33Z" id="cO10LYhTL"></path><path d="M14 12.67C14 12.67 14 12.67 14 12.67C14 13.47 14 13.91 14 14C14 14 14 14 14 14C13.2 14 12.76 14 12.67 14C12.67 14 12.67 14 12.67 14C12.67 13.2 12.67 12.76 12.67 12.67C12.67 12.67 12.67 12.67 12.67 12.67C13.47 12.67 13.91 12.67 14 12.67Z" id="cdWLYOLjB"></path><path d="M14.67 27.33C14.67 27.33 14.67 27.33 14.67 27.33C14.67 28.13 14.67 28.58 14.67 28.67C14.67 28.67 14.67 28.67 14.67 28.67C13.87 28.67 13.42 28.67 13.34 28.67C13.34 28.67 13.34 28.67 13.34 28.67C13.34 27.87 13.34 27.42 13.34 27.33C13.34 27.33 13.34 27.33 13.34 27.33C14.14 27.33 14.58 27.33 14.67 27.33Z" id="b3us46Rkwj"></path><path d="M12.67 24.67C12.67 24.67 12.67 24.67 12.67 24.67C12.67 25.47 12.67 25.91 12.67 26C12.67 26 12.67 26 12.67 26C11.87 26 11.42 26 11.34 26C11.34 26 11.34 26 11.34 26C11.34 25.2 11.34 24.76 11.34 24.67C11.34 24.67 11.34 24.67 11.34 24.67C12.14 24.67 12.58 24.67 12.67 24.67Z" id="a3AEgbRCVL"></path></defs><g><g><use xlink:href="#bRV9xkO7H" opacity="1" fill="#000000" fill-opacity="1"></use><g><use xlink:href="#bRV9xkO7H" opacity="1" fill-opacity="0" stroke="#000000" stroke-width="1" stroke-opacity="0"></use></g></g><g><use xlink:href="#g2xO0ZVCY" opacity="1" fill="#000000" fill-opacity="1"></use><g><use xlink:href="#g2xO0ZVCY" opacity="1" fill-opacity="0" stroke="#000000" stroke-width="1" stroke-opacity="0"></use></g></g><g><use xlink:href="#e2TYjWgtln" opacity="1" fill="#000000" fill-opacity="1"></use><g><use xlink:href="#e2TYjWgtln" opacity="1" fill-opacity="0" stroke="#000000" stroke-width="1" stroke-opacity="0"></use></g></g><g><use xlink:href="#apgIsZoR" opacity="1" fill="#000000" fill-opacity="1"></use><g><use xlink:href="#apgIsZoR" opacity="1" fill-opacity="0" stroke="#000000" stroke-width="1" stroke-opacity="0"></use></g></g><g><use xlink:href="#b13RcsUSaR" opacity="1" fill="#000000" fill-opacity="1"></use><g><use xlink:href="#b13RcsUSaR" opacity="1" fill-opacity="0" stroke="#000000" stroke-width="1" stroke-opacity="0"></use></g></g><g><use xlink:href="#bagbNHoZr" opacity="1" fill="#000000" fill-opacity="1"></use><g><use xlink:href="#bagbNHoZr" opacity="1" fill-opacity="0" stroke="#000000" stroke-width="1" stroke-opacity="0"></use></g></g><g><use xlink:href="#l1COzdrPjY" opacity="1" fill="#000000" fill-opacity="1"></use><g><use xlink:href="#l1COzdrPjY" opacity="1" fill-opacity="0" stroke="#000000" stroke-width="1" stroke-opacity="0"></use></g></g><g><use xlink:href="#d9WaQjwpA" opacity="1" fill="#000000" fill-opacity="1"></use><g><use xlink:href="#d9WaQjwpA" opacity="1" fill-opacity="0" stroke="#000000" stroke-width="1" stroke-opacity="0"></use></g></g><g><use xlink:href="#drgXKekka" opacity="1" fill="#000000" fill-opacity="1"></use><g><use xlink:href="#drgXKekka" opacity="1" fill-opacity="0" stroke="#000000" stroke-width="1" stroke-opacity="0"></use></g></g><g><use xlink:href="#anAS4ymED" opacity="1" fill="#000000" fill-opacity="1"></use><g><use xlink:href="#anAS4ymED" opacity="1" fill-opacity="0" stroke="#000000" stroke-width="1" stroke-opacity="0"></use></g></g><g><use xlink:href="#a6gpYvoAa" opacity="1" fill="#000000" fill-opacity="1"></use><g><use xlink:href="#a6gpYvoAa" opacity="1" fill-opacity="0" stroke="#000000" stroke-width="1" stroke-opacity="0"></use></g></g><g><use xlink:href="#a3V5tPa8bq" opacity="1" fill="#000000" fill-opacity="1"></use><g><use xlink:href="#a3V5tPa8bq" opacity="1" fill-opacity="0" stroke="#000000" stroke-width="1" stroke-opacity="0"></use></g></g><g><use xlink:href="#dmplXqWWy" opacity="1" fill="#000000" fill-opacity="1"></use><g><use xlink:href="#dmplXqWWy" opacity="1" fill-opacity="0" stroke="#000000" stroke-width="1" stroke-opacity="0"></use></g></g><g><use xlink:href="#e2PkG4IRuy" opacity="1" fill="#000000" fill-opacity="1"></use><g><use xlink:href="#e2PkG4IRuy" opacity="1" fill-opacity="0" stroke="#000000" stroke-width="1" stroke-opacity="0"></use></g></g><g><use xlink:href="#a1Lj6BEyZV" opacity="1" fill="#000000" fill-opacity="1"></use><g><use xlink:href="#a1Lj6BEyZV" opacity="1" fill-opacity="0" stroke="#000000" stroke-width="1" stroke-opacity="0"></use></g></g><g><use xlink:href="#a11eALHLQF" opacity="1" fill="#000000" fill-opacity="1"></use><g><use xlink:href="#a11eALHLQF" opacity="1" fill-opacity="0" stroke="#000000" stroke-width="1" stroke-opacity="0"></use></g></g><g><use xlink:href="#cO10LYhTL" opacity="1" fill="#000000" fill-opacity="1"></use><g><use xlink:href="#cO10LYhTL" opacity="1" fill-opacity="0" stroke="#000000" stroke-width="1" stroke-opacity="0"></use></g></g><g><use xlink:href="#cdWLYOLjB" opacity="1" fill="#000000" fill-opacity="1"></use><g><use xlink:href="#cdWLYOLjB" opacity="1" fill-opacity="0" stroke="#000000" stroke-width="1" stroke-opacity="0"></use></g></g><g><use xlink:href="#b3us46Rkwj" opacity="1" fill="#000000" fill-opacity="1"></use><g><use xlink:href="#b3us46Rkwj" opacity="1" fill-opacity="0" stroke="#000000" stroke-width="1" stroke-opacity="0"></use></g></g><g><use xlink:href="#a3AEgbRCVL" opacity="1" fill="#000000" fill-opacity="1"></use><g><use xlink:href="#a3AEgbRCVL" opacity="1" fill-opacity="0" stroke="#000000" stroke-width="1" stroke-opacity="0"></use></g></g></g></svg>