<?xml version="1.0" encoding="UTF-8" standalone="no"?>
<!DOCTYPE svg PUBLIC "-//W3C//DTD SVG 1.1//EN" "http://www.w3.org/Graphics/SVG/1.1/DTD/svg11.dtd">
<svg version="1.1" xmlns="http://www.w3.org/2000/svg" xmlns:xlink="http://www.w3.org/1999/xlink" preserveAspectRatio="xMidYMid meet" viewBox="-1 0.02500200195703428 36 35.900000000000006" width="32" height="31.9"><defs><path d="M27.8 23.66C27.29 24.17 23.18 28.28 22.67 28.79C22.54 28.93 22.5 29.13 22.57 29.31C22.64 29.48 22.81 29.6 23 29.6C23.52 29.6 27.62 29.6 28.13 29.6C28.39 29.6 28.6 29.38 28.6 29.13C28.6 28.61 28.6 24.51 28.6 23.99C28.6 23.8 28.49 23.63 28.31 23.56C28.14 23.49 27.94 23.53 27.8 23.66ZM27.67 25.13L27.67 28.66L24.14 28.66L27.67 25.13Z" id="a4r5jZsBRU"></path><path d="M31.2 16.13C31.1 16.22 30.64 16.69 29.79 17.54C29.79 11.8 29.79 8.61 29.79 7.97C29.79 7.71 29.58 7.5 29.32 7.5C29.08 7.5 27.88 7.5 25.71 7.5C26.5 6.72 26.94 6.28 27.02 6.19C27.02 6.19 27.02 6.19 27.02 6.19C27.15 6.07 28.16 5.06 28.29 4.93C28.56 4.66 28.71 4.3 28.71 3.92C28.71 3.53 28.56 3.17 28.29 2.9C28.14 2.76 26.97 1.59 26.83 1.44C26.56 1.17 26.2 1.03 25.81 1.03C25.43 1.03 25.07 1.17 24.8 1.44C24.72 1.53 24.3 1.95 23.54 2.71L22.01 4.23L18.74 7.5L4.16 7.5C4.16 4.71 4.16 3.17 4.16 2.86C4.16 2.6 3.95 2.39 3.69 2.39C1.66 2.39 0 4.04 0 6.08C0 8.08 0 24.04 0 26.03C0 26.07 0 26.1 0.01 26.13C0.08 27 0.45 27.8 1.07 28.41C1.74 29.06 2.62 29.42 3.56 29.42C4.51 29.42 9.3 29.42 17.91 29.42C16.29 31.04 15.39 31.94 15.21 32.12C15.07 32.26 15.03 32.46 15.11 32.64C15.18 32.81 15.35 32.93 15.54 32.93C17.14 32.93 29.93 32.93 31.53 32.93C31.79 32.93 32 32.71 32 32.46C32 30.86 32 18.06 32 16.46C32 16.27 31.89 16.1 31.71 16.03C31.53 15.96 31.33 16 31.2 16.13ZM26.16 2.11C26.31 2.25 27.48 3.42 27.62 3.57C27.81 3.76 27.81 4.07 27.62 4.27C27.56 4.33 27.25 4.64 26.69 5.2L24.53 3.04L25.47 2.11C25.8 1.98 26.03 1.98 26.16 2.11ZM26.03 5.86L25.16 6.72L23.01 4.57L23.87 3.7L26.03 5.86ZM30.19 21.74C29.93 21.74 29.72 21.95 29.72 22.21C29.72 22.47 29.93 22.68 30.19 22.68C30.25 22.68 30.54 22.68 31.06 22.68L31.06 24.1C30.54 24.1 30.25 24.1 30.19 24.1C29.93 24.1 29.72 24.31 29.72 24.57C29.72 24.83 29.93 25.04 30.19 25.04C30.25 25.04 30.54 25.04 31.06 25.04L31.06 26.45C30.54 26.45 30.25 26.45 30.19 26.45C29.93 26.45 29.72 26.66 29.72 26.92C29.72 27.18 29.93 27.39 30.19 27.39C30.25 27.39 30.54 27.39 31.06 27.39L31.06 28.81C30.54 28.81 30.25 28.81 30.19 28.81C29.93 28.81 29.72 29.02 29.72 29.28C29.72 29.54 29.93 29.75 30.19 29.75C30.25 29.75 30.54 29.75 31.06 29.75L31.06 31.99L16.67 31.99C19.52 29.14 21.1 27.56 21.42 27.24C21.6 27.06 21.6 26.76 21.42 26.58C21.4 26.56 21.37 26.54 21.35 26.52C21.17 26.4 20.92 26.41 20.75 26.58C20.63 26.7 19.99 27.34 18.85 28.48C9.67 28.48 4.58 28.48 3.56 28.48C2.13 28.48 0.99 27.37 0.94 25.95C0.94 25.86 0.95 25.77 0.96 25.68C0.96 25.68 0.96 25.68 0.96 25.68C0.97 25.64 0.97 25.6 0.98 25.56C0.98 25.55 0.98 25.55 0.98 25.54C0.99 25.5 1 25.47 1.01 25.43C1.01 25.42 1.01 25.41 1.01 25.4C1.02 25.37 1.03 25.34 1.04 25.31C1.04 25.29 1.05 25.28 1.05 25.26C1.06 25.24 1.06 25.21 1.07 25.19C1.08 25.17 1.09 25.14 1.1 25.12C1.1 25.1 1.11 25.09 1.11 25.07C1.12 25.04 1.14 25.01 1.15 24.98C1.15 24.97 1.16 24.96 1.16 24.95C1.18 24.92 1.19 24.88 1.21 24.84C1.21 24.84 1.21 24.84 1.21 24.84C1.58 24.08 2.29 23.51 3.13 23.33C3.14 23.33 3.14 23.33 3.14 23.33C3.18 23.32 3.22 23.32 3.26 23.31C3.27 23.31 3.27 23.31 3.28 23.31C3.31 23.3 3.35 23.3 3.39 23.29C3.4 23.29 3.41 23.29 3.42 23.29C3.45 23.29 3.49 23.28 3.52 23.28C3.53 23.28 3.54 23.28 3.56 23.28C3.6 23.28 3.65 23.28 3.69 23.28C3.95 23.28 4.16 23.07 4.16 22.81C4.16 22.47 4.16 19.74 4.16 19.4C4.16 19.14 3.95 18.93 3.69 18.93C3.43 18.93 3.22 19.14 3.22 19.4C3.22 19.7 3.22 22.07 3.22 22.37C2.43 22.47 1.7 22.82 1.11 23.39C1.05 23.45 1 23.51 0.94 23.57C0.94 21.82 0.94 7.83 0.94 6.08C0.94 4.72 1.93 3.59 3.22 3.37C3.22 3.67 3.22 5.21 3.22 7.97L3.22 17.52C3.22 17.52 3.22 17.52 3.22 17.52C3.22 17.78 3.43 17.99 3.69 17.99C3.95 17.99 4.16 17.78 4.16 17.52C4.16 17.52 4.16 17.52 4.16 17.52L4.16 8.44L17.8 8.44C16.25 10 15.38 10.87 15.21 11.04C15.02 11.22 15.02 11.52 15.21 11.7C15.39 11.89 15.69 11.89 15.87 11.7C16.21 11.36 18.93 8.64 19.27 8.3C19.27 8.3 19.27 8.3 19.27 8.3C19.47 8.1 20.5 7.07 22.34 5.23L24.5 7.39C24.35 7.54 24.26 7.62 24.25 7.64C24.25 7.64 24.25 7.64 24.25 7.64C23.62 8.27 20.46 11.43 14.78 17.11L12.62 14.96C13.74 13.83 14.36 13.21 14.49 13.09C14.67 12.9 14.67 12.61 14.49 12.42C14.3 12.24 14.01 12.24 13.82 12.42C13.6 12.64 11.84 14.4 11.62 14.62C11.61 14.63 11.6 14.65 11.59 14.66C11.59 14.66 11.58 14.67 11.58 14.67C11.57 14.68 11.57 14.69 11.56 14.7C11.56 14.71 11.55 14.71 11.55 14.72C11.55 14.73 11.54 14.73 11.54 14.74C11.53 14.75 11.53 14.76 11.53 14.76C11.52 14.77 11.52 14.78 11.52 14.79C11.52 14.79 11.51 14.8 11.51 14.8C11.45 14.97 11.15 15.84 10.6 17.39C10.22 18.45 10.02 19.04 9.97 19.16C9.97 19.18 9.96 19.21 9.96 19.23C9.8 19.23 8.55 19.23 8.39 19.23C8.13 19.23 7.92 19.44 7.92 19.7C7.92 19.96 8.13 20.17 8.39 20.17C9.69 20.17 20.1 20.17 21.4 20.17C21.66 20.17 21.87 19.96 21.87 19.7C21.87 19.44 21.66 19.23 21.4 19.23C20.78 19.23 17.67 19.23 12.07 19.23C13.79 18.62 14.74 18.29 14.93 18.22C14.94 18.22 14.94 18.22 14.94 18.22C14.95 18.21 14.96 18.21 14.97 18.2C14.98 18.2 14.98 18.2 14.99 18.2C15 18.19 15.01 18.18 15.02 18.18C15.02 18.18 15.03 18.17 15.03 18.17C15.04 18.16 15.05 18.16 15.06 18.15C15.06 18.15 15.07 18.14 15.07 18.14C15.08 18.13 15.1 18.12 15.11 18.11C15.75 17.46 18.97 14.24 24.77 8.44L28.85 8.44L28.85 18.48C24.82 22.51 22.58 24.75 22.13 25.2C21.95 25.38 21.95 25.68 22.13 25.86C22.15 25.87 22.16 25.88 22.17 25.89C22.26 25.96 22.36 26 22.47 26C22.57 26 22.68 25.96 22.76 25.89C22.77 25.88 22.79 25.87 22.8 25.86C22.8 25.86 22.8 25.86 22.8 25.86C23.35 25.31 26.1 22.56 31.06 17.6L31.06 21.74C30.54 21.74 30.25 21.74 30.19 21.74ZM12.57 18.06L11.68 17.16L12.15 15.81L13.92 17.58L12.57 18.06Z" id="b2gy3vsheK"></path></defs><g><g><use xlink:href="#a4r5jZsBRU" opacity="1" fill="#000000" fill-opacity="1"></use><g><use xlink:href="#a4r5jZsBRU" opacity="1" fill-opacity="0" stroke="#000000" stroke-width="1" stroke-opacity="0"></use></g></g><g><use xlink:href="#b2gy3vsheK" opacity="1" fill="#000000" fill-opacity="1"></use><g><use xlink:href="#b2gy3vsheK" opacity="1" fill-opacity="0" stroke="#000000" stroke-width="1" stroke-opacity="0"></use></g></g></g></svg>