<?xml version="1.0" encoding="UTF-8" standalone="no"?>
<!DOCTYPE svg PUBLIC "-//W3C//DTD SVG 1.1//EN" "http://www.w3.org/Graphics/SVG/1.1/DTD/svg11.dtd">
<svg version="1.1" xmlns="http://www.w3.org/2000/svg" xmlns:xlink="http://www.w3.org/1999/xlink" preserveAspectRatio="xMidYMid meet" viewBox="-1 -0.9749999511717817 35.99999999999999 36" width="32" height="32"><defs><path d="M31.03 18.87C30.1 18.18 28.81 18.25 27.96 19.04C27.44 19.53 23.31 23.37 22.8 23.85C22.83 22.79 22.13 21.86 21.09 21.6C20.46 21.44 15.42 20.16 14.79 20C13.69 19.72 12.53 19.75 11.45 20.11C11.15 20.2 9.7 20.67 7.09 21.52C7.09 20.77 7.09 20.35 7.09 20.27C7.09 19.92 6.81 19.64 6.46 19.64C5.88 19.64 1.21 19.64 0.62 19.64C0.28 19.64 0 19.92 0 20.27C0 21.38 0 30.29 0 31.4C0 31.75 0.28 32.03 0.62 32.03C1.21 32.03 5.88 32.03 6.46 32.03C6.81 32.03 7.09 31.75 7.09 31.4C7.09 30.83 7.09 27.97 7.09 22.83C9.93 21.91 11.51 21.4 11.83 21.29C12.69 21.02 13.61 20.99 14.48 21.21C15.11 21.37 20.16 22.65 20.79 22.81C21.28 22.93 21.59 23.39 21.54 23.89C21.49 24.41 21.06 24.8 20.54 24.8C20.1 24.8 16.58 24.8 16.14 24.8C15.8 24.8 15.52 25.08 15.52 25.43C15.52 25.77 15.8 26.05 16.14 26.05C16.28 26.05 17.36 26.05 17.49 26.05C17.51 26.05 17.54 26.06 17.56 26.06C17.87 26.06 20.35 26.06 20.66 26.06C21.7 26.06 22.68 25.67 23.44 24.96C23.98 24.46 28.27 20.46 28.81 19.96C29.22 19.58 29.84 19.55 30.28 19.88C30.56 20.08 30.73 20.4 30.75 20.74C30.77 21.08 30.63 21.41 30.38 21.65C29.64 22.34 23.72 27.85 22.98 28.54C22.47 29.01 21.81 29.28 21.11 29.28C20.14 29.28 12.39 29.28 11.42 29.28C11.08 29.28 10.8 29.55 10.8 29.9C10.8 30.25 11.08 30.53 11.42 30.53C12.39 30.53 20.14 30.53 21.11 30.53C22.12 30.53 23.09 30.14 23.83 29.45C24.57 28.76 30.49 23.25 31.23 22.56C31.76 22.08 32.04 21.39 32 20.67C31.96 19.96 31.6 19.3 31.03 18.87ZM1.25 30.78L1.25 20.89L5.84 20.89L5.84 30.78L1.25 30.78Z" id="hxQEe2bK8"></path><path d="M8.9 29.28C8.74 29.28 8.58 29.34 8.46 29.46C8.34 29.57 8.28 29.74 8.28 29.9C8.28 30.06 8.34 30.23 8.46 30.34C8.58 30.46 8.74 30.53 8.9 30.53C9.07 30.53 9.23 30.46 9.34 30.34C9.46 30.23 9.53 30.06 9.53 29.9C9.53 29.74 9.46 29.57 9.34 29.46C9.23 29.34 9.07 29.28 8.9 29.28Z" id="a1FhkNgtcl"></path><path d="M3.54 28.63C3.38 28.63 3.22 28.7 3.1 28.81C2.99 28.93 2.92 29.09 2.92 29.25C2.92 29.42 2.99 29.58 3.1 29.7C3.22 29.81 3.38 29.88 3.54 29.88C3.71 29.88 3.87 29.81 3.99 29.7C4.1 29.58 4.17 29.42 4.17 29.25C4.17 29.09 4.1 28.93 3.99 28.81C3.87 28.7 3.71 28.63 3.54 28.63Z" id="b2wVVG8Cbi"></path><path d="M10.37 5.65C10.37 6.68 11.22 7.53 12.25 7.53C13.28 7.53 14.12 6.68 14.12 5.65C14.12 4.62 14.97 3.77 16 3.77C17.03 3.77 17.87 4.62 17.87 5.65C17.87 6.68 17.03 7.53 16 7.53C14.97 7.53 14.12 8.37 14.12 9.4C14.12 9.67 14.12 11.82 14.12 12.09C14.12 13.12 14.97 13.96 16 13.96C17.03 13.96 17.87 13.12 17.87 12.09C17.87 11.97 17.87 11.07 17.87 10.95C20.1 10.17 21.62 8.05 21.62 5.65C21.62 2.55 19.1 0.03 16 0.03C12.9 0.03 10.37 2.55 10.37 5.65ZM16.62 10.49C16.62 10.65 16.62 11.93 16.62 12.09C16.62 12.43 16.34 12.71 16 12.71C15.65 12.71 15.37 12.43 15.37 12.09C15.37 11.82 15.37 9.67 15.37 9.4C15.37 9.06 15.65 8.77 16 8.77C17.72 8.77 19.12 7.37 19.12 5.65C19.12 3.93 17.72 2.52 16 2.52C14.28 2.52 12.87 3.93 12.87 5.65C12.87 5.99 12.59 6.27 12.25 6.27C11.9 6.27 11.62 5.99 11.62 5.65C11.62 3.24 13.59 1.27 16 1.27C18.41 1.27 20.37 3.24 20.37 5.65C20.37 7.65 19.02 9.39 17.09 9.89C16.82 9.96 16.62 10.21 16.62 10.49Z" id="d1wzmnCilE"></path><path d="M16 15.41C15.5 15.41 15.02 15.61 14.67 15.96C14.32 16.31 14.12 16.79 14.12 17.28C14.12 17.78 14.32 18.26 14.67 18.61C15.02 18.96 15.51 19.16 16 19.16C16.49 19.16 16.98 18.96 17.32 18.61C17.67 18.26 17.87 17.78 17.87 17.28C17.87 16.79 17.67 16.31 17.32 15.96C16.98 15.61 16.49 15.41 16 15.41ZM16 17.91C15.84 17.91 15.67 17.84 15.56 17.72C15.44 17.61 15.37 17.45 15.37 17.28C15.37 17.12 15.44 16.96 15.56 16.84C15.67 16.73 15.84 16.66 16 16.66C16.16 16.66 16.33 16.73 16.44 16.84C16.56 16.96 16.62 17.12 16.62 17.28C16.62 17.44 16.56 17.61 16.44 17.72C16.33 17.84 16.16 17.91 16 17.91Z" id="d1VW5dTzBx"></path><path d="M2.92 22.81C2.92 23.2 2.92 26.38 2.92 26.78C2.92 27.12 3.2 27.4 3.54 27.4C3.89 27.4 4.17 27.12 4.17 26.78C4.17 26.38 4.17 23.2 4.17 22.81C4.17 22.46 3.89 22.18 3.54 22.18C3.2 22.18 2.92 22.46 2.92 22.81Z" id="g2L8KAdS"></path></defs><g><g><use xlink:href="#hxQEe2bK8" opacity="1" fill="#000000" fill-opacity="1"></use><g><use xlink:href="#hxQEe2bK8" opacity="1" fill-opacity="0" stroke="#000000" stroke-width="1" stroke-opacity="0"></use></g></g><g><use xlink:href="#a1FhkNgtcl" opacity="1" fill="#000000" fill-opacity="1"></use><g><use xlink:href="#a1FhkNgtcl" opacity="1" fill-opacity="0" stroke="#000000" stroke-width="1" stroke-opacity="0"></use></g></g><g><use xlink:href="#b2wVVG8Cbi" opacity="1" fill="#000000" fill-opacity="1"></use><g><use xlink:href="#b2wVVG8Cbi" opacity="1" fill-opacity="0" stroke="#000000" stroke-width="1" stroke-opacity="0"></use></g></g><g><use xlink:href="#d1wzmnCilE" opacity="1" fill="#000000" fill-opacity="1"></use><g><use xlink:href="#d1wzmnCilE" opacity="1" fill-opacity="0" stroke="#000000" stroke-width="1" stroke-opacity="0"></use></g></g><g><use xlink:href="#d1VW5dTzBx" opacity="1" fill="#000000" fill-opacity="1"></use><g><use xlink:href="#d1VW5dTzBx" opacity="1" fill-opacity="0" stroke="#000000" stroke-width="1" stroke-opacity="0"></use></g></g><g><use xlink:href="#g2L8KAdS" opacity="1" fill="#000000" fill-opacity="1"></use><g><use xlink:href="#g2L8KAdS" opacity="1" fill-opacity="0" stroke="#000000" stroke-width="1" stroke-opacity="0"></use></g></g></g></svg>