<?xml version="1.0" encoding="UTF-8" standalone="no"?>
<!DOCTYPE svg PUBLIC "-//W3C//DTD SVG 1.1//EN" "http://www.w3.org/Graphics/SVG/1.1/DTD/svg11.dtd">
<svg version="1.1" xmlns="http://www.w3.org/2000/svg" xmlns:xlink="http://www.w3.org/1999/xlink" preserveAspectRatio="xMidYMid meet" viewBox="-1 -1 36 28.660000000000004" width="32" height="24.66"><defs><path d="M30.93 3.2C30.93 4.48 30.93 10.88 30.93 22.4C29.2 22.4 28.23 22.4 28.04 22.4C24.61 22.4 21.18 22.79 17.84 23.57C17.41 23.66 16.96 23.49 16.72 23.12C18.62 21.96 20.81 21.34 23.05 21.34C23.67 21.34 28.7 21.34 29.33 21.34C29.63 21.34 29.87 21.1 29.87 20.8C29.87 20.43 29.87 17.44 29.87 17.07C29.87 16.78 29.63 16.54 29.33 16.54C29.04 16.54 28.8 16.78 28.8 17.07C28.8 17.28 28.8 18.35 28.8 20.27C25.35 20.27 23.43 20.27 23.05 20.27C20.76 20.27 18.52 20.86 16.53 21.98C16.53 20.53 16.53 8.92 16.53 7.47C16.53 7.17 16.29 6.93 16 6.93C15.71 6.93 15.47 7.17 15.47 7.47C15.47 8.92 15.47 20.53 15.47 21.98C13.48 20.86 11.24 20.27 8.95 20.27C8.57 20.27 6.65 20.27 3.2 20.27L3.2 1.07C8.13 1.07 10.87 1.07 11.41 1.07C13.65 1.07 15.47 2.88 15.47 5.12C15.47 5.42 15.71 5.66 16 5.66C16.29 5.66 16.53 5.42 16.53 5.12C16.53 2.88 18.35 1.07 20.59 1.07C21.13 1.07 23.87 1.07 28.8 1.07C28.8 9.39 28.8 14.01 28.8 14.94C28.8 15.23 29.04 15.47 29.33 15.47C29.63 15.47 29.87 15.23 29.87 14.94C29.87 13.5 29.87 1.97 29.87 0.53C29.87 0.24 29.63 0 29.33 0C28.46 0 21.46 0 20.59 0C18.64 0 16.87 1.1 16 2.84C15.13 1.1 13.36 0 11.41 0C10.54 0 3.54 0 2.67 0C2.37 0 2.13 0.24 2.13 0.53C2.13 2.56 2.13 18.78 2.13 20.8C2.13 21.1 2.37 21.34 2.67 21.34C3.3 21.34 8.33 21.34 8.95 21.34C11.19 21.34 13.38 21.95 15.28 23.12C15.04 23.49 14.59 23.66 14.16 23.57C10.82 22.79 7.4 22.4 3.96 22.4C3.77 22.4 2.8 22.4 1.07 22.4C1.07 10.88 1.07 4.48 1.07 3.2C1.07 2.91 0.83 2.67 0.53 2.67C0.24 2.67 0 2.91 0 3.2C0 5.17 0 20.96 0 22.94C0 23.23 0.24 23.47 0.53 23.47C0.88 23.47 3.62 23.47 3.96 23.47C7.31 23.47 10.65 23.85 13.92 24.61C14.69 24.78 15.49 24.52 16 23.93C16.51 24.52 17.31 24.78 18.08 24.61C21.35 23.85 24.69 23.47 28.04 23.47C28.38 23.47 31.12 23.47 31.47 23.47C31.76 23.47 32 23.23 32 22.94C32 20.96 32 5.17 32 3.2C32 2.91 31.76 2.67 31.47 2.67C31.17 2.67 30.93 2.91 30.93 3.2Z" id="abXozMdd6"></path></defs><g><g><use xlink:href="#abXozMdd6" opacity="1" fill="#000000" fill-opacity="1"></use><g><use xlink:href="#abXozMdd6" opacity="1" fill-opacity="0" stroke="#000000" stroke-width="1" stroke-opacity="0"></use></g></g></g></svg>