<?xml version="1.0" encoding="UTF-8" standalone="no"?>
<!DOCTYPE svg PUBLIC "-//W3C//DTD SVG 1.1//EN" "http://www.w3.org/Graphics/SVG/1.1/DTD/svg11.dtd">
<svg version="1.1" xmlns="http://www.w3.org/2000/svg" xmlns:xlink="http://www.w3.org/1999/xlink" preserveAspectRatio="xMidYMid meet" viewBox="-0.9999999999999942 -0.9999999999999929 35.99999999999999 35.970000000000006" width="32" height="31.97"><defs><path d="M14.44 14.44C14.44 11.25 12.35 8.53 9.47 7.59C10.6 6.85 11.35 5.58 11.35 4.13C11.35 1.86 9.5 0.01 7.22 0.01C4.95 0.01 3.1 1.86 3.1 4.13C3.1 5.58 3.85 6.85 4.98 7.59C2.09 8.53 0 11.24 0 14.44C0 14.59 0 15.83 0 15.99C0 16.67 0.27 17.32 0.75 17.81C1.24 18.3 1.89 18.57 2.58 18.57C2.58 18.98 2.58 21.04 2.58 24.75L3.61 24.75C3.61 27.85 3.61 29.56 3.61 29.91C3.61 31.05 4.54 31.97 5.68 31.97C6.3 31.97 6.84 31.69 7.22 31.26C7.6 31.69 8.15 31.97 8.77 31.97C9.91 31.97 10.83 31.05 10.83 29.91C10.83 29.56 10.83 27.85 10.82 24.75L11.86 24.75L11.86 20.11C11.86 20.11 11.86 20.11 11.86 20.11C13.28 20.11 14.44 18.96 14.44 17.53C14.44 16.92 14.44 14.75 14.44 14.44ZM7.14 9.99C6.34 9.05 5.9 8.53 5.81 8.42C6.27 8.32 6.74 8.25 7.22 8.25C7.67 8.25 8.11 8.31 8.54 8.4C8.35 8.61 7.89 9.14 7.14 9.99ZM7.22 1.04C8.93 1.04 10.32 2.42 10.32 4.13C10.32 5.84 8.93 7.22 7.22 7.22C5.52 7.22 4.13 5.84 4.13 4.13C4.13 2.42 5.52 1.04 7.22 1.04ZM1.03 14.44C1.03 11.91 2.57 9.73 4.75 8.77C4.87 8.9 5.44 9.57 6.46 10.77L5.67 11.67L5.67 12.38L4.64 12.38L4.64 14.96L2.06 14.96L2.06 15.99C4.69 15.99 6.15 15.99 6.44 15.99C6.87 15.99 7.22 16.34 7.22 16.76C7.22 17.19 6.87 17.53 6.44 17.53C6.06 17.53 2.96 17.53 2.58 17.53C2.16 17.53 1.78 17.37 1.48 17.08C1.19 16.79 1.03 16.4 1.03 15.99C1.03 15.68 1.03 14.59 1.03 14.44ZM5.67 18.57C6.13 18.57 6.39 18.57 6.44 18.57C7.44 18.57 8.25 17.76 8.25 16.76C8.25 15.77 7.44 14.96 6.44 14.96C6.39 14.96 6.13 14.96 5.67 14.96L5.67 13.41L8.76 13.41L8.76 19.6L5.67 19.6L5.67 18.57ZM4.65 29.91C4.65 29.56 4.64 27.85 4.64 24.75L6.71 24.75C6.71 27.85 6.71 29.56 6.71 29.91C6.71 30.48 6.25 30.94 5.68 30.94C5.11 30.94 4.65 30.48 4.65 29.91ZM9.8 29.91C9.8 30.48 9.34 30.94 8.77 30.94C8.2 30.94 7.74 30.48 7.74 29.91C7.74 29.56 7.74 27.85 7.74 24.75L9.79 24.75C9.8 27.5 9.8 29.22 9.8 29.91ZM11.85 11.35L10.82 11.35L10.83 23.72L3.61 23.72L3.61 18.57L4.64 18.57L4.64 20.63L9.79 20.63L9.79 12.38L6.7 12.38L6.7 12.06C8.45 10.06 9.42 8.96 9.61 8.74C11.84 9.67 13.41 11.88 13.41 14.44C13.41 14.75 13.41 17.23 13.41 17.53C13.41 18.39 12.72 19.08 11.86 19.08C11.86 19.08 11.86 19.08 11.86 19.08L11.85 11.35Z" id="axfGHRCpB"></path><path d="M28.91 11.34C30.61 11.34 32 9.95 32 8.25C32 7.44 31.67 6.66 31.08 6.07C30.58 5.57 29.95 5.26 29.28 5.18C28.84 3.65 27.44 2.58 25.81 2.58C25.49 2.58 25.18 2.62 24.87 2.7C24.12 1.07 22.49 0 20.66 0C18.1 0 16.02 2.08 16.02 4.64C16.02 4.83 16.03 5.01 16.06 5.2C15.42 5.3 14.83 5.6 14.36 6.07C13.77 6.66 13.44 7.44 13.44 8.25C13.44 9.95 14.83 11.34 16.54 11.34C16.94 11.34 20.21 11.35 20.62 11.35C20.9 11.35 21.13 11.58 21.13 11.86C21.13 12.03 21.13 12.89 21.13 14.44C19.59 14.44 18.73 14.44 18.56 14.44C17.7 14.44 17.01 15.14 17.01 15.99C17.01 16.84 17.7 17.53 18.56 17.53C18.59 17.53 18.76 17.53 19.07 17.53C19.07 18.7 19.07 19.34 19.07 19.47C19.07 19.8 18.99 20.13 18.82 20.42C18.42 21.13 15.21 26.84 14.81 27.55C14.56 27.99 14.43 28.49 14.43 29C14.43 30.64 15.76 31.97 17.4 31.97C18.45 31.97 26.9 31.97 27.96 31.97C29.6 31.97 30.93 30.64 30.93 29C30.93 28.49 30.8 27.99 30.55 27.55C30.15 26.84 26.94 21.13 26.54 20.42C26.37 20.13 26.29 19.8 26.29 19.47C26.29 19.34 26.29 18.7 26.29 17.53C26.6 17.53 26.77 17.53 26.8 17.53C27.66 17.53 28.35 16.84 28.35 15.99C28.35 15.14 27.66 14.44 26.8 14.44C26.63 14.44 25.77 14.44 24.23 14.44C24.23 12.89 24.23 12.03 24.23 11.86C24.23 11.58 24.46 11.35 24.74 11.35C25.57 11.35 28.49 11.34 28.91 11.34ZM17.4 30.94C16.33 30.94 15.46 30.07 15.46 29C15.46 28.67 15.55 28.34 15.71 28.05C16.11 27.34 19.32 21.64 19.72 20.92C19.97 20.48 20.1 19.98 20.1 19.47C20.1 19.34 20.1 18.7 20.1 17.53L21.13 17.53L21.13 23.72L22.16 23.72L22.16 17.53L23.2 17.53C23.2 21.56 23.2 23.79 23.2 24.24C23.2 25.09 23.89 25.78 24.74 25.78C24.84 25.78 25.67 25.78 25.77 25.78C26.06 25.78 26.29 26.01 26.29 26.3C26.29 26.58 26.06 26.81 25.77 26.81C25.05 26.81 19.28 26.81 18.56 26.81C17.7 26.81 17.01 27.51 17.01 28.36C17.01 29.21 17.7 29.91 18.56 29.91C19.67 29.91 28.55 29.91 29.66 29.91C29.34 30.52 28.7 30.94 27.96 30.94C25.85 30.94 18.45 30.94 17.4 30.94ZM29.65 28.05C29.79 28.31 29.87 28.59 29.89 28.88C28.75 28.88 19.69 28.88 18.56 28.88C18.27 28.88 18.04 28.65 18.04 28.36C18.04 28.08 18.27 27.85 18.56 27.85C19.28 27.85 25.05 27.85 25.77 27.85C26.63 27.85 27.32 27.15 27.32 26.3C27.32 25.45 26.63 24.75 25.77 24.75C25.67 24.75 24.84 24.75 24.74 24.75C24.46 24.75 24.23 24.52 24.23 24.24C24.23 23.79 24.23 21.56 24.23 17.53L25.26 17.53C25.26 18.7 25.26 19.34 25.26 19.47C25.26 19.98 25.39 20.48 25.64 20.92C26.44 22.35 29.25 27.34 29.65 28.05ZM26.8 16.5C25.98 16.5 19.38 16.5 18.56 16.5C18.27 16.5 18.04 16.27 18.04 15.99C18.04 15.7 18.27 15.47 18.56 15.47C19.38 15.47 25.98 15.47 26.8 15.47C27.09 15.47 27.32 15.7 27.32 15.99C27.32 16.27 27.09 16.5 26.8 16.5ZM22.16 14.44C22.16 12.89 22.16 12.03 22.16 11.86C22.16 11.01 21.47 10.32 20.62 10.32C20.21 10.32 16.94 10.31 16.54 10.31C15.4 10.31 14.47 9.39 14.47 8.25C14.47 7.71 14.69 7.2 15.09 6.8C15.49 6.4 16 6.19 16.54 6.19C16.54 6.19 16.54 6.19 16.54 6.19C17.67 6.19 18.6 7.11 18.6 8.25C18.7 8.25 19.53 8.25 19.63 8.25C19.63 6.74 18.54 5.48 17.1 5.21C17.07 5.02 17.05 4.83 17.05 4.64C17.05 2.65 18.67 1.03 20.66 1.03C22.22 1.03 23.6 2.03 24.09 3.51C24.1 3.55 24.16 3.73 24.26 4.05C24.57 3.92 24.75 3.84 24.78 3.83C25.11 3.68 25.46 3.61 25.81 3.61C26.89 3.61 27.83 4.27 28.21 5.24C26.84 5.56 25.81 6.78 25.81 8.25C25.92 8.25 26.74 8.25 26.85 8.25C26.85 7.11 27.77 6.19 28.91 6.19C28.91 6.19 28.91 6.19 28.91 6.19C29.44 6.19 29.96 6.41 30.35 6.8C30.75 7.2 30.97 7.71 30.97 8.25C30.97 9.39 30.04 10.31 28.91 10.31C28.49 10.31 25.16 10.32 24.74 10.32C23.89 10.32 23.2 11.01 23.2 11.86C23.2 12.03 23.2 12.89 23.2 14.44L22.16 14.44Z" id="aAID9p2yy"></path><path d="M21.13 24.75L22.16 24.75L22.16 25.78L21.13 25.78L21.13 24.75Z" id="d6Cj7XoQX6"></path><path d="M20.62 3.1C21.47 3.1 22.16 3.79 22.16 4.65C22.27 4.65 23.09 4.65 23.2 4.65C23.2 3.22 22.04 2.07 20.62 2.07C20.62 2.27 20.62 3 20.62 3.1Z" id="d7pAJYVxC"></path></defs><g><g><use xlink:href="#axfGHRCpB" opacity="1" fill="#000000" fill-opacity="1"></use><g><use xlink:href="#axfGHRCpB" opacity="1" fill-opacity="0" stroke="#000000" stroke-width="1" stroke-opacity="0"></use></g></g><g><use xlink:href="#aAID9p2yy" opacity="1" fill="#000000" fill-opacity="1"></use><g><use xlink:href="#aAID9p2yy" opacity="1" fill-opacity="0" stroke="#000000" stroke-width="1" stroke-opacity="0"></use></g></g><g><use xlink:href="#d6Cj7XoQX6" opacity="1" fill="#000000" fill-opacity="1"></use><g><use xlink:href="#d6Cj7XoQX6" opacity="1" fill-opacity="0" stroke="#000000" stroke-width="1" stroke-opacity="0"></use></g></g><g><use xlink:href="#d7pAJYVxC" opacity="1" fill="#000000" fill-opacity="1"></use><g><use xlink:href="#d7pAJYVxC" opacity="1" fill-opacity="0" stroke="#000000" stroke-width="1" stroke-opacity="0"></use></g></g></g></svg>